<?xml version="1.0" encoding="UTF-8"?>
<!DOCTYPE svg PUBLIC "-//W3C//DTD SVG 1.1//EN" "http://www.w3.org/Graphics/SVG/1.1/DTD/svg11.dtd">
<svg xmlns="http://www.w3.org/2000/svg" version="1.1" width="2370px" height="1283px" style="shape-rendering:geometricPrecision; text-rendering:geometricPrecision; image-rendering:optimizeQuality; fill-rule:evenodd; clip-rule:evenodd" xmlns:xlink="http://www.w3.org/1999/xlink">
<g><path style="opacity:1" fill="#feed00" d="M -0.5,-0.5 C 789.5,-0.5 1579.5,-0.5 2369.5,-0.5C 2369.5,427.167 2369.5,854.833 2369.5,1282.5C 1579.5,1282.5 789.5,1282.5 -0.5,1282.5C -0.5,854.833 -0.5,427.167 -0.5,-0.5 Z"/></g>
<g><path style="opacity:1" fill="#fed725" d="M 820.5,301.5 C 753.833,301.5 687.167,301.5 620.5,301.5C 620.47,300.503 620.97,299.836 622,299.5C 688.306,300.162 754.473,300.828 820.5,301.5 Z"/></g>
<g><path style="opacity:1" fill="#fd0001" d="M 817.5,302.5 C 818.498,527.46 818.831,752.46 818.5,977.5C 792.545,978.482 766.545,978.815 740.5,978.5C 738.842,785.414 737.842,592.414 737.5,399.5C 699.004,398.501 660.337,398.168 621.5,398.5C 621.5,366.5 621.5,334.5 621.5,302.5C 686.833,302.5 752.167,302.5 817.5,302.5 Z"/></g>
<g><path style="opacity:1" fill="#fddf1d" d="M 1261.5,310.5 C 1226.16,305.197 1190.83,305.197 1155.5,310.5C 1156.26,309.732 1157.26,309.232 1158.5,309C 1158.17,308.667 1157.83,308.333 1157.5,308C 1163.47,307.025 1169.47,306.192 1175.5,305.5C 1174.62,304.749 1173.62,304.249 1172.5,304C 1174.74,303.094 1177.08,302.594 1179.5,302.5C 1203.49,304.016 1227.49,305.516 1251.5,307C 1255.32,307.433 1258.66,308.599 1261.5,310.5 Z"/></g>
<g><path style="opacity:1" fill="#fec82f" d="M 820.5,979.5 C 820.5,753.5 820.5,527.5 820.5,301.5C 821.65,300.15 822.317,300.316 822.5,302C 821.835,527.973 821.168,753.806 820.5,979.5 Z"/></g>
<g><path style="opacity:1" fill="#d11d00" d="M 620.5,301.5 C 687.167,301.5 753.833,301.5 820.5,301.5C 820.5,527.5 820.5,753.5 820.5,979.5C 819.5,979.5 818.5,979.5 817.5,979.5C 817.833,978.833 818.167,978.167 818.5,977.5C 819.666,753 819.833,528.334 819,303.5C 818.617,302.944 818.117,302.611 817.5,302.5C 752.167,302.5 686.833,302.5 621.5,302.5C 621.5,334.5 621.5,366.5 621.5,398.5C 660.337,398.168 699.004,398.501 737.5,399.5C 698.5,399.5 659.5,399.5 620.5,399.5C 620.5,366.833 620.5,334.167 620.5,301.5 Z"/></g>
<g><path style="opacity:1" fill="#f00d00" d="M 817.5,302.5 C 818.117,302.611 818.617,302.944 819,303.5C 819.833,528.334 819.666,753 818.5,977.5C 818.831,752.46 818.498,527.46 817.5,302.5 Z"/></g>
<g><path style="opacity:1" fill="#ed0f01" d="M 1261.5,310.5 C 1268.91,312.186 1276.24,314.186 1283.5,316.5C 1274.47,316.37 1265.47,316.037 1256.5,315.5C 1256.5,314.5 1256.5,313.5 1256.5,312.5C 1247.49,312.782 1238.65,313.782 1230,315.5C 1229.17,315.167 1228.33,314.833 1227.5,314.5C 1228.5,313.833 1229.5,313.167 1230.5,312.5C 1228.22,311.785 1226.89,310.618 1226.5,309C 1210.49,308.167 1194.49,308.334 1178.5,309.5C 1176.92,310.298 1175.26,310.798 1173.5,311C 1175.12,311.853 1175.46,312.853 1174.5,314C 1177.45,313.848 1180.45,313.681 1183.5,313.5C 1183.5,314.5 1183.5,315.5 1183.5,316.5C 1178.27,316.959 1173.1,317.626 1168,318.5C 1167.52,317.552 1167.35,316.552 1167.5,315.5C 1155.08,315.325 1154.75,314.325 1166.5,312.5C 1167.59,310.895 1166.92,310.229 1164.5,310.5C 1158.57,311.982 1152.57,313.482 1146.5,315C 1147.5,315.333 1148.5,315.667 1149.5,316C 1147.76,316.651 1146.1,316.485 1144.5,315.5C 1143.81,316.025 1143.31,316.692 1143,317.5C 1139.61,316.544 1136.11,316.211 1132.5,316.5C 1140.05,314.028 1147.72,312.028 1155.5,310.5C 1190.83,305.197 1226.16,305.197 1261.5,310.5 Z"/></g>
<g><path style="opacity:1" fill="#fd0002" d="M 1283.5,316.5 C 1296.05,319.128 1308.05,323.128 1319.5,328.5C 1320.41,330.086 1320.41,331.586 1319.5,333C 1321.95,332.71 1324.12,332.21 1326,331.5C 1329.27,335.358 1333.44,337.525 1338.5,338C 1339.17,339 1339.83,340 1340.5,341C 1339.27,342.183 1339.27,343.349 1340.5,344.5C 1342.26,344.306 1344.1,344.306 1346,344.5C 1346.49,346.134 1346.66,347.801 1346.5,349.5C 1349.27,349.22 1351.77,349.887 1354,351.5C 1355.12,351.335 1356.28,351.002 1357.5,350.5C 1358.9,352.907 1360.23,355.407 1361.5,358C 1364.58,359.914 1367.91,361.081 1371.5,361.5C 1371.33,358.203 1372,357.869 1373.5,360.5C 1374.88,357.924 1375.72,358.258 1376,361.5C 1377.13,360.396 1377.96,360.729 1378.5,362.5C 1377.35,364.585 1378.02,366.085 1380.5,367C 1382.24,367.651 1383.9,367.485 1385.5,366.5C 1386.21,368.435 1387.21,368.768 1388.5,367.5C 1389.28,369.451 1390.62,370.951 1392.5,372C 1391.83,372.333 1391.17,372.667 1390.5,373C 1392.49,374.751 1394.82,375.751 1397.5,376C 1398.64,376.741 1398.64,377.575 1397.5,378.5C 1398.69,379.429 1400.02,379.762 1401.5,379.5C 1401.34,380.873 1401.51,382.207 1402,383.5C 1404.13,383.073 1406.29,383.573 1408.5,385C 1407.4,386.68 1407.73,388.18 1409.5,389.5C 1407.78,391.868 1407.11,394.534 1407.5,397.5C 1410.41,397.916 1413.24,398.582 1416,399.5C 1418.03,399.646 1419.7,398.98 1421,397.5C 1422.87,399.808 1423.87,402.475 1424,405.5C 1424.67,406.833 1425.33,406.833 1426,405.5C 1429.24,409.143 1428.41,410.643 1423.5,410C 1424.37,412.579 1426.04,414.412 1428.5,415.5C 1429.88,414.024 1431.55,413.024 1433.5,412.5C 1434.71,413.274 1434.71,414.107 1433.5,415C 1435.11,416.495 1436.78,416.661 1438.5,415.5C 1439.24,416.908 1440.08,418.241 1441,419.5C 1441.38,418.944 1441.88,418.611 1442.5,418.5C 1480.21,462.934 1504.88,513.934 1516.5,571.5C 1515.88,571.917 1515.54,572.584 1515.5,573.5C 1518.32,590.537 1520.65,607.537 1522.5,624.5C 1522.22,626.415 1522.55,628.081 1523.5,629.5C 1523.5,629.833 1523.5,630.167 1523.5,630.5C 1522.8,633.897 1522.14,637.397 1521.5,641C 1492.83,641.667 1464.17,641.667 1435.5,641C 1434.94,640.617 1434.61,640.117 1434.5,639.5C 1434.33,633.491 1434.5,627.491 1435,621.5C 1435.47,623.246 1436.14,624.913 1437,626.5C 1437.33,622.833 1437.67,619.167 1438,615.5C 1438.5,615 1439,614.5 1439.5,614C 1437.82,610.132 1435.98,606.298 1434,602.5C 1433.67,603.833 1433.33,605.167 1433,606.5C 1431.93,601.196 1432.6,596.196 1435,591.5C 1435.89,594.279 1437.06,596.945 1438.5,599.5C 1440.26,594.913 1439.43,590.913 1436,587.5C 1435.58,588.672 1434.91,589.672 1434,590.5C 1432.93,587.129 1431.77,583.796 1430.5,580.5C 1429.62,579.749 1428.62,579.249 1427.5,579C 1430.09,576.736 1430.92,573.903 1430,570.5C 1429.67,571.833 1429.33,573.167 1429,574.5C 1428.52,573.552 1428.35,572.552 1428.5,571.5C 1427.18,571.67 1426.01,571.337 1425,570.5C 1424.02,566.443 1422.52,562.777 1420.5,559.5C 1415.57,547.079 1410.24,534.745 1404.5,522.5C 1404.26,516.139 1404.26,509.806 1404.5,503.5C 1405.5,503.5 1406.5,503.5 1407.5,503.5C 1407.5,500.833 1407.5,498.167 1407.5,495.5C 1405.4,495.201 1403.4,495.534 1401.5,496.5C 1402.38,497.971 1403.71,498.804 1405.5,499C 1404.33,500.833 1402.83,502.333 1401,503.5C 1400.24,500.53 1398.74,498.03 1396.5,496C 1395.1,495.405 1393.77,495.572 1392.5,496.5C 1391.77,495.066 1390.77,493.9 1389.5,493C 1389.96,492.586 1390.29,492.086 1390.5,491.5C 1388.99,490.253 1387.49,490.253 1386,491.5C 1385.5,491 1385,490.5 1384.5,490C 1389.83,486.75 1389.33,484.25 1383,482.5C 1382.67,483.5 1382.33,484.5 1382,485.5C 1381.22,483.567 1381.72,482.067 1383.5,481C 1381.47,480.373 1379.13,479.54 1376.5,478.5C 1374.72,469.215 1369.22,463.881 1360,462.5C 1359.65,459.461 1358.48,456.795 1356.5,454.5C 1357.85,450.89 1357.18,450.557 1354.5,453.5C 1351.88,450.335 1348.54,448.168 1344.5,447C 1343.33,445.167 1342.17,443.333 1341,441.5C 1340.31,442.357 1339.48,443.023 1338.5,443.5C 1336.92,442.544 1335.26,441.877 1333.5,441.5C 1332.83,441.167 1332.17,440.833 1331.5,440.5C 1331.5,439.5 1331.5,438.5 1331.5,437.5C 1330.45,437.649 1329.45,437.483 1328.5,437C 1327.17,436.333 1327.17,435.667 1328.5,435C 1327.83,434.667 1327.17,434.333 1326.5,434C 1327.62,433.751 1328.62,433.251 1329.5,432.5C 1326.8,431.885 1324.3,431.885 1322,432.5C 1317.56,427.593 1312.4,424.76 1306.5,424C 1306.17,423.667 1305.83,423.333 1305.5,423C 1308.26,422.441 1310.26,420.941 1311.5,418.5C 1311,418.167 1310.5,417.833 1310,417.5C 1308.33,418.167 1306.67,418.833 1305,419.5C 1301.72,417.161 1298.38,415.828 1295,415.5C 1293.77,415.645 1292.61,415.978 1291.5,416.5C 1283.49,414.085 1275.82,410.919 1268.5,407C 1261.1,406.606 1253.77,405.773 1246.5,404.5C 1244.33,403.731 1242.17,402.731 1240,401.5C 1237.46,402.797 1234.96,402.631 1232.5,401C 1214.46,400.18 1196.46,400.347 1178.5,401.5C 1178.17,400.833 1177.83,400.167 1177.5,399.5C 1173.26,400.588 1168.92,400.588 1164.5,399.5C 1160.51,402.09 1156.51,402.09 1152.5,399.5C 1150.56,400.189 1148.56,400.689 1146.5,401C 1147.17,403 1147.83,405 1148.5,407C 1148,407.5 1147.5,408 1147,408.5C 1144.38,407.077 1141.88,407.243 1139.5,409C 1143.27,409.766 1143.1,410.599 1139,411.5C 1138.05,410.978 1137.22,410.311 1136.5,409.5C 1136.93,411.403 1136.27,413.069 1134.5,414.5C 1134.17,414.5 1133.83,414.5 1133.5,414.5C 1133.44,413.957 1133.11,413.624 1132.5,413.5C 1129.56,414.304 1126.89,415.637 1124.5,417.5C 1123.3,417.154 1123.3,416.654 1124.5,416C 1123.5,415.833 1122.5,415.667 1121.5,415.5C 1117.42,415.791 1113.42,415.791 1109.5,415.5C 1108.35,415.818 1107.52,416.484 1107,417.5C 1105.99,416.663 1104.82,416.33 1103.5,416.5C 1103.5,417.5 1103.5,418.5 1103.5,419.5C 1104.5,419.5 1105.5,419.5 1106.5,419.5C 1106.66,421.199 1106.49,422.866 1106,424.5C 1105.59,424.043 1105.09,423.709 1104.5,423.5C 1102.95,425.959 1100.95,426.626 1098.5,425.5C 1096.87,428.298 1095.04,430.965 1093,433.5C 1092.67,433.167 1092.33,432.833 1092,432.5C 1091.21,433.745 1090.71,435.078 1090.5,436.5C 1087.21,437.207 1083.88,437.54 1080.5,437.5C 1079.96,440.944 1077.96,442.111 1074.5,441C 1073.36,440.259 1073.36,439.425 1074.5,438.5C 1077.44,436.893 1080.11,434.893 1082.5,432.5C 1078.74,432.269 1075.08,432.269 1071.5,432.5C 1072.04,433.748 1072.71,434.915 1073.5,436C 1070.97,437.916 1070.97,439.916 1073.5,442C 1073.17,442.333 1072.83,442.667 1072.5,443C 1073.5,443.833 1074.5,444.667 1075.5,445.5C 1072.31,446.865 1068.98,447.699 1065.5,448C 1063.99,448.837 1063.49,450.004 1064,451.5C 1065.05,450.483 1066.22,450.316 1067.5,451C 1065.54,452.451 1064.2,454.284 1063.5,456.5C 1050.22,469.79 1037.88,483.79 1026.5,498.5C 1023.6,499.102 1021.93,500.935 1021.5,504C 1020.33,504.353 1019.16,504.187 1018,503.5C 1016.94,503.63 1016.11,504.13 1015.5,505C 1016.13,507.355 1016.13,509.522 1015.5,511.5C 1012.91,512.205 1010.24,512.205 1007.5,511.5C 1007.79,514.834 1007.79,518 1007.5,521C 1008.27,522.221 1009.27,523.221 1010.5,524C 1009.03,524.71 1008.36,525.876 1008.5,527.5C 1006.4,527.201 1004.4,527.534 1002.5,528.5C 1004.88,531.581 1004.71,534.247 1002,536.5C 1001.75,535.376 1001.25,534.376 1000.5,533.5C 999.276,535.828 999.276,538.161 1000.5,540.5C 1000,541.5 999.5,542.5 999,543.5C 997.175,540.689 995.842,537.689 995,534.5C 994.308,535.025 993.808,535.692 993.5,536.5C 994.833,539.167 994.833,541.833 993.5,544.5C 995.447,546.276 995.78,548.276 994.5,550.5C 993.833,549.5 993.167,548.5 992.5,547.5C 992.167,548 991.833,548.5 991.5,549C 994.09,552.791 994.924,556.958 994,561.5C 993.566,557.777 992.732,557.61 991.5,561C 991.759,562.261 992.426,563.261 993.5,564C 991.299,568.177 989.966,572.677 989.5,577.5C 989.167,577.833 988.833,578.167 988.5,578.5C 987.289,577.726 987.289,576.893 988.5,576C 987.552,575.517 986.552,575.351 985.5,575.5C 985.5,576.833 985.5,578.167 985.5,579.5C 986.959,579.433 988.292,579.766 989.5,580.5C 989.5,580.833 989.5,581.167 989.5,581.5C 988.717,583.076 987.55,584.409 986,585.5C 985.338,581.647 984.504,581.647 983.5,585.5C 984.523,587.003 985.523,588.503 986.5,590C 985.938,593.316 984.938,596.483 983.5,599.5C 984.853,602.245 984.686,604.912 983,607.5C 981,628.833 981,650.167 983,671.5C 983.204,674.797 984.037,677.797 985.5,680.5C 989.817,705.449 997.15,729.449 1007.5,752.5C 1008.53,754.864 1008.53,757.197 1007.5,759.5C 1007.92,760.672 1008.59,761.672 1009.5,762.5C 1009.15,763.696 1008.65,763.696 1008,762.5C 1007.25,766.085 1008.09,769.252 1010.5,772C 1011.45,772.483 1012.45,772.649 1013.5,772.5C 1013.35,771.448 1013.52,770.448 1014,769.5C 1015.15,771.649 1016.65,773.482 1018.5,775C 1018.17,775.333 1017.83,775.667 1017.5,776C 1018.4,778.202 1019.4,780.368 1020.5,782.5C 1022.63,783.467 1024.63,784.634 1026.5,786C 1025.66,787.011 1025.33,788.178 1025.5,789.5C 1027.22,789.629 1028.88,789.962 1030.5,790.5C 1036.83,797.833 1043.17,805.167 1049.5,812.5C 1049.39,813.117 1049.06,813.617 1048.5,814C 1050.07,815.826 1050.91,817.993 1051,820.5C 1054.78,823.642 1058.95,826.142 1063.5,828C 1063.17,828.333 1062.83,828.667 1062.5,829C 1063.23,830.399 1063.73,831.899 1064,833.5C 1064.33,833.167 1064.67,832.833 1065,832.5C 1066.64,836.011 1067.8,836.344 1068.5,833.5C 1069.93,833.977 1071.26,834.643 1072.5,835.5C 1071.83,835.833 1071.17,836.167 1070.5,836.5C 1071.43,838.638 1073.1,839.804 1075.5,840C 1072.7,841.112 1071.7,842.946 1072.5,845.5C 1076.59,841.028 1079.59,841.528 1081.5,847C 1083.58,847.192 1085.58,847.692 1087.5,848.5C 1087.68,850.672 1087.84,853.005 1088,855.5C 1089.57,854.386 1090.9,853.053 1092,851.5C 1094.83,853.254 1094.99,855.088 1092.5,857C 1095.32,857.84 1097.48,857.006 1099,854.5C 1100.11,855.76 1100.28,856.927 1099.5,858C 1101.38,858.216 1103.05,858.883 1104.5,860C 1103.72,861.073 1103.89,862.24 1105,863.5C 1105.79,862.289 1106.45,861.289 1107,860.5C 1111.1,861.401 1111.27,862.234 1107.5,863C 1111.44,864.475 1115.11,864.308 1118.5,862.5C 1126.03,865.565 1133.69,868.232 1141.5,870.5C 1147.61,872.949 1153.94,874.949 1160.5,876.5C 1160.61,877.117 1160.94,877.617 1161.5,878C 1167.89,879.451 1174.23,880.784 1180.5,882C 1437.17,882.5 1693.83,882.667 1950.5,882.5C 1950.5,913.833 1950.5,945.167 1950.5,976.5C 1701.67,976.167 1453,976.5 1204.5,977.5C 1197.4,976.866 1190.4,976.199 1183.5,975.5C 1174.08,973.399 1164.41,971.899 1154.5,971C 1149.92,970.406 1145.59,969.073 1141.5,967C 1138.18,966.502 1134.85,966.335 1131.5,966.5C 1121.99,964.44 1112.65,961.773 1103.5,958.5C 1092.59,954.047 1081.93,949.047 1071.5,943.5C 1070.11,941.049 1069.27,938.382 1069,935.5C 1068.67,935.833 1068.33,936.167 1068,936.5C 1066.71,933.855 1064.55,932.855 1061.5,933.5C 1061.5,932.5 1061.5,931.5 1061.5,930.5C 1059.33,930.318 1057.33,929.651 1055.5,928.5C 1053.91,929.01 1052.75,930.01 1052,931.5C 1049.9,930.285 1050.07,929.451 1052.5,929C 1049.76,928.202 1047.76,926.535 1046.5,924C 1045.83,923.333 1045.17,923.333 1044.5,924C 1045.45,924.718 1045.62,925.551 1045,926.5C 1043.98,925.109 1043.15,923.609 1042.5,922C 1040.9,921.727 1039.4,921.227 1038,920.5C 1037.56,918.924 1036.73,917.59 1035.5,916.5C 1037.78,912.431 1039.11,912.764 1039.5,917.5C 1043.44,917.595 1046.94,918.928 1050,921.5C 1051.06,921.37 1051.89,920.87 1052.5,920C 1051.83,918.249 1051.49,916.583 1051.5,915C 1048.51,915.128 1045.51,915.128 1042.5,915C 1041,913.839 1039.5,912.673 1038,911.5C 1036.74,911.759 1035.74,912.426 1035,913.5C 1034.33,912.422 1033.33,911.755 1032,911.5C 1029.24,911.444 1026.41,911.777 1023.5,912.5C 1016.43,907.613 1009.77,902.113 1003.5,896C 980.113,875.427 960.446,851.594 944.5,824.5C 944.931,820.578 943.931,817.078 941.5,814C 941.833,813.667 942.167,813.333 942.5,813C 940.693,811.398 938.693,810.064 936.5,809C 937.52,806.466 937.52,803.633 936.5,800.5C 934.994,799.253 933.494,799.253 932,800.5C 932.984,798.402 932.651,796.402 931,794.5C 930.086,795.654 929.253,795.487 928.5,794C 929.167,793.667 929.833,793.333 930.5,793C 929.076,791.184 927.41,789.684 925.5,788.5C 924.167,786.5 922.833,784.5 921.5,782.5C 916.568,769.704 912.235,756.704 908.5,743.5C 908.583,739.42 909.583,735.587 911.5,732C 910.151,729.106 908.651,726.273 907,723.5C 905.653,725.193 905.153,726.86 905.5,728.5C 905.208,723.557 905.042,718.557 905,713.5C 904.586,713.957 904.086,714.291 903.5,714.5C 901.566,711.087 901.232,707.587 902.5,704C 904.134,703.506 905.801,703.34 907.5,703.5C 907.335,706.518 907.502,709.518 908,712.5C 909.064,711.056 909.564,709.389 909.5,707.5C 909.245,702.959 908.245,698.626 906.5,694.5C 905.376,696.369 904.543,698.369 904,700.5C 900.612,698.149 900.112,695.482 902.5,692.5C 901.691,690.929 901.357,689.262 901.5,687.5C 899.833,687.5 898.167,687.5 896.5,687.5C 893.68,657.483 893.847,627.483 897,597.5C 898.031,596.3 898.865,594.966 899.5,593.5C 898.654,589.882 898.32,586.215 898.5,582.5C 898.5,581.5 898.5,580.5 898.5,579.5C 901.573,561.302 906.24,543.635 912.5,526.5C 914.379,527.341 916.379,527.675 918.5,527.5C 919.749,523.267 920.582,518.934 921,514.5C 922.956,514.216 925.123,514.216 927.5,514.5C 927.657,513.127 927.49,511.793 927,510.5C 925.602,511.051 924.268,511.384 923,511.5C 922.268,509.294 922.935,507.628 925,506.5C 924.923,507.738 925.089,508.738 925.5,509.5C 926.783,506.628 926.783,503.795 925.5,501C 927.014,499.561 927.347,498.061 926.5,496.5C 929.436,495.885 932.103,494.718 934.5,493C 933.262,493.077 932.262,492.911 931.5,492.5C 932.73,490.067 933.73,487.567 934.5,485C 932.842,484.275 932.342,483.108 933,481.5C 933.691,483.891 934.691,483.891 936,481.5C 938.093,484.044 939.093,487.044 939,490.5C 939.414,490.957 939.914,491.291 940.5,491.5C 941.97,487.932 941.636,484.599 939.5,481.5C 940.381,480.029 941.714,479.196 943.5,479C 943.393,475.935 943.393,472.935 943.5,470C 942.833,469.333 942.167,468.667 941.5,468C 943.592,467.047 943.925,465.714 942.5,464C 944.421,463.64 946.088,462.806 947.5,461.5C 946.559,461.511 945.892,461.011 945.5,460C 946.32,458.2 946.986,456.366 947.5,454.5C 948.222,454.918 948.722,455.584 949,456.5C 949.851,453.388 951.017,453.054 952.5,455.5C 953.706,453.516 953.706,451.516 952.5,449.5C 954.559,446.136 955.226,445.969 954.5,449C 955.416,449.374 956.25,449.874 957,450.5C 957.202,452.256 957.702,453.922 958.5,455.5C 959.797,452.812 959.464,450.312 957.5,448C 959.333,444.833 961.833,442.333 965,440.5C 966.501,436.403 968.167,432.403 970,428.5C 971.908,427.921 973.575,427.921 975,428.5C 974.386,424.479 974.553,420.479 975.5,416.5C 994.794,392.53 1017.46,372.53 1043.5,356.5C 1044.24,356.369 1044.91,356.536 1045.5,357C 1044.3,357.654 1044.3,358.154 1045.5,358.5C 1046.91,357.194 1048.58,356.36 1050.5,356C 1047.83,355 1047.83,354 1050.5,353C 1051.9,352.405 1053.23,352.572 1054.5,353.5C 1057.82,351.818 1061.16,350.151 1064.5,348.5C 1066.34,349.939 1068.01,349.772 1069.5,348C 1068.04,347.577 1067.54,346.744 1068,345.5C 1070.14,344.272 1071.81,342.605 1073,340.5C 1076.32,343.528 1078.66,342.861 1080,338.5C 1080.72,339.451 1081.55,339.617 1082.5,339C 1083.38,337.414 1084.38,335.914 1085.5,334.5C 1089.44,335.6 1093.44,335.767 1097.5,335C 1096.42,332.175 1095.25,332.008 1094,334.5C 1093.69,333.234 1093.19,332.067 1092.5,331C 1095.58,330.234 1098.58,329.234 1101.5,328C 1102.38,327.292 1103.05,326.458 1103.5,325.5C 1112.84,321.497 1122.51,318.497 1132.5,316.5C 1136.11,316.211 1139.61,316.544 1143,317.5C 1143.31,316.692 1143.81,316.025 1144.5,315.5C 1146.1,316.485 1147.76,316.651 1149.5,316C 1148.5,315.667 1147.5,315.333 1146.5,315C 1152.57,313.482 1158.57,311.982 1164.5,310.5C 1166.92,310.229 1167.59,310.895 1166.5,312.5C 1154.75,314.325 1155.08,315.325 1167.5,315.5C 1167.35,316.552 1167.52,317.552 1168,318.5C 1173.1,317.626 1178.27,316.959 1183.5,316.5C 1183.5,315.5 1183.5,314.5 1183.5,313.5C 1180.45,313.681 1177.45,313.848 1174.5,314C 1175.46,312.853 1175.12,311.853 1173.5,311C 1175.26,310.798 1176.92,310.298 1178.5,309.5C 1194.49,308.334 1210.49,308.167 1226.5,309C 1226.89,310.618 1228.22,311.785 1230.5,312.5C 1229.5,313.167 1228.5,313.833 1227.5,314.5C 1228.33,314.833 1229.17,315.167 1230,315.5C 1238.65,313.782 1247.49,312.782 1256.5,312.5C 1256.5,313.5 1256.5,314.5 1256.5,315.5C 1265.47,316.037 1274.47,316.37 1283.5,316.5 Z"/></g>
<g><path style="opacity:1" fill="#ee0e03" d="M 1103.5,325.5 C 1103.05,326.458 1102.38,327.292 1101.5,328C 1098.58,329.234 1095.58,330.234 1092.5,331C 1093.19,332.067 1093.69,333.234 1094,334.5C 1095.25,332.008 1096.42,332.175 1097.5,335C 1093.44,335.767 1089.44,335.6 1085.5,334.5C 1084.38,335.914 1083.38,337.414 1082.5,339C 1081.55,339.617 1080.72,339.451 1080,338.5C 1078.66,342.861 1076.32,343.528 1073,340.5C 1071.81,342.605 1070.14,344.272 1068,345.5C 1067.54,346.744 1068.04,347.577 1069.5,348C 1068.01,349.772 1066.34,349.939 1064.5,348.5C 1061.16,350.151 1057.82,351.818 1054.5,353.5C 1053.23,352.572 1051.9,352.405 1050.5,353C 1047.83,354 1047.83,355 1050.5,356C 1048.58,356.36 1046.91,357.194 1045.5,358.5C 1044.3,358.154 1044.3,357.654 1045.5,357C 1044.91,356.536 1044.24,356.369 1043.5,356.5C 1062.02,343.573 1082.02,333.24 1103.5,325.5 Z"/></g>
<g><path style="opacity:1" fill="#ed1004" d="M 1319.5,328.5 C 1344.75,337.805 1367.75,350.805 1388.5,367.5C 1387.21,368.768 1386.21,368.435 1385.5,366.5C 1383.9,367.485 1382.24,367.651 1380.5,367C 1378.02,366.085 1377.35,364.585 1378.5,362.5C 1377.96,360.729 1377.13,360.396 1376,361.5C 1375.72,358.258 1374.88,357.924 1373.5,360.5C 1372,357.869 1371.33,358.203 1371.5,361.5C 1367.91,361.081 1364.58,359.914 1361.5,358C 1360.23,355.407 1358.9,352.907 1357.5,350.5C 1356.28,351.002 1355.12,351.335 1354,351.5C 1351.77,349.887 1349.27,349.22 1346.5,349.5C 1346.66,347.801 1346.49,346.134 1346,344.5C 1344.1,344.306 1342.26,344.306 1340.5,344.5C 1339.27,343.349 1339.27,342.183 1340.5,341C 1339.83,340 1339.17,339 1338.5,338C 1333.44,337.525 1329.27,335.358 1326,331.5C 1324.12,332.21 1321.95,332.71 1319.5,333C 1320.41,331.586 1320.41,330.086 1319.5,328.5 Z"/></g>
<g><path style="opacity:1" fill="#fece25" d="M 620.5,301.5 C 620.5,334.167 620.5,366.833 620.5,399.5C 659.5,399.5 698.5,399.5 737.5,399.5C 737.5,592.833 737.5,786.167 737.5,979.5C 736.414,979.38 735.747,978.713 735.5,977.5C 736.498,785.188 736.831,592.855 736.5,400.5C 697.5,400.5 658.5,400.5 619.5,400.5C 619.168,367.329 619.502,334.329 620.5,301.5 Z"/></g>
<g><path style="opacity:1" fill="#dc1a00" d="M 737.5,399.5 C 737.842,592.414 738.842,785.414 740.5,978.5C 766.545,978.815 792.545,978.482 818.5,977.5C 818.167,978.167 817.833,978.833 817.5,979.5C 790.833,979.5 764.167,979.5 737.5,979.5C 737.5,786.167 737.5,592.833 737.5,399.5 Z"/></g>
<g><path style="opacity:1" fill="#ed1202" d="M 1246.5,404.5 C 1243.76,404.599 1241.1,404.265 1238.5,403.5C 1236.5,403.5 1234.5,403.5 1232.5,403.5C 1219.87,401.475 1207.2,401.142 1194.5,402.5C 1173.86,403.327 1153.86,407.327 1134.5,414.5C 1136.27,413.069 1136.93,411.403 1136.5,409.5C 1137.22,410.311 1138.05,410.978 1139,411.5C 1143.1,410.599 1143.27,409.766 1139.5,409C 1141.88,407.243 1144.38,407.077 1147,408.5C 1147.5,408 1148,407.5 1148.5,407C 1147.83,405 1147.17,403 1146.5,401C 1148.56,400.689 1150.56,400.189 1152.5,399.5C 1156.51,402.09 1160.51,402.09 1164.5,399.5C 1168.92,400.588 1173.26,400.588 1177.5,399.5C 1177.83,400.167 1178.17,400.833 1178.5,401.5C 1196.46,400.347 1214.46,400.18 1232.5,401C 1234.96,402.631 1237.46,402.797 1240,401.5C 1242.17,402.731 1244.33,403.731 1246.5,404.5 Z"/></g>
<g><path style="opacity:1" fill="#fed12d" d="M 1194.5,402.5 C 1207.2,401.142 1219.87,401.475 1232.5,403.5C 1219.84,402.985 1207.17,402.652 1194.5,402.5 Z"/></g>
<g><path style="opacity:1" fill="#ffd127" d="M 1238.5,403.5 C 1241.1,404.265 1243.76,404.599 1246.5,404.5C 1252.5,406.167 1258.5,407.833 1264.5,409.5C 1259.85,409.69 1255.35,409.023 1251,407.5C 1249.34,407.675 1248.01,408.342 1247,409.5C 1246.75,408.376 1246.25,407.376 1245.5,406.5C 1242.76,406.113 1240.43,405.113 1238.5,403.5 Z"/></g>
<g><path style="opacity:1" fill="#ee1203" d="M 1388.5,367.5 C 1409.31,381.391 1427.31,398.391 1442.5,418.5C 1441.88,418.611 1441.38,418.944 1441,419.5C 1440.08,418.241 1439.24,416.908 1438.5,415.5C 1436.78,416.661 1435.11,416.495 1433.5,415C 1434.71,414.107 1434.71,413.274 1433.5,412.5C 1431.55,413.024 1429.88,414.024 1428.5,415.5C 1426.04,414.412 1424.37,412.579 1423.5,410C 1428.41,410.643 1429.24,409.143 1426,405.5C 1425.33,406.833 1424.67,406.833 1424,405.5C 1423.87,402.475 1422.87,399.808 1421,397.5C 1419.7,398.98 1418.03,399.646 1416,399.5C 1413.24,398.582 1410.41,397.916 1407.5,397.5C 1407.11,394.534 1407.78,391.868 1409.5,389.5C 1407.73,388.18 1407.4,386.68 1408.5,385C 1406.29,383.573 1404.13,383.073 1402,383.5C 1401.51,382.207 1401.34,380.873 1401.5,379.5C 1400.02,379.762 1398.69,379.429 1397.5,378.5C 1398.64,377.575 1398.64,376.741 1397.5,376C 1394.82,375.751 1392.49,374.751 1390.5,373C 1391.17,372.667 1391.83,372.333 1392.5,372C 1390.62,370.951 1389.28,369.451 1388.5,367.5 Z"/></g>
<g><path style="opacity:1" fill="#ef1103" d="M 1133.5,414.5 C 1118.51,420.494 1104.18,427.827 1090.5,436.5C 1090.71,435.078 1091.21,433.745 1092,432.5C 1092.33,432.833 1092.67,433.167 1093,433.5C 1095.04,430.965 1096.87,428.298 1098.5,425.5C 1100.95,426.626 1102.95,425.959 1104.5,423.5C 1105.09,423.709 1105.59,424.043 1106,424.5C 1106.49,422.866 1106.66,421.199 1106.5,419.5C 1105.5,419.5 1104.5,419.5 1103.5,419.5C 1103.5,418.5 1103.5,417.5 1103.5,416.5C 1104.82,416.33 1105.99,416.663 1107,417.5C 1107.52,416.484 1108.35,415.818 1109.5,415.5C 1113.42,415.791 1117.42,415.791 1121.5,415.5C 1122.5,415.667 1123.5,415.833 1124.5,416C 1123.3,416.654 1123.3,417.154 1124.5,417.5C 1126.89,415.637 1129.56,414.304 1132.5,413.5C 1133.11,413.624 1133.44,413.957 1133.5,414.5 Z"/></g>
<g><path style="opacity:1" fill="#eb1403" d="M 1246.5,404.5 C 1253.77,405.773 1261.1,406.606 1268.5,407C 1275.82,410.919 1283.49,414.085 1291.5,416.5C 1292.61,415.978 1293.77,415.645 1295,415.5C 1298.38,415.828 1301.72,417.161 1305,419.5C 1306.67,418.833 1308.33,418.167 1310,417.5C 1310.5,417.833 1311,418.167 1311.5,418.5C 1310.26,420.941 1308.26,422.441 1305.5,423C 1305.83,423.333 1306.17,423.667 1306.5,424C 1312.4,424.76 1317.56,427.593 1322,432.5C 1324.3,431.885 1326.8,431.885 1329.5,432.5C 1328.62,433.251 1327.62,433.751 1326.5,434C 1327.17,434.333 1327.83,434.667 1328.5,435C 1327.17,435.667 1327.17,436.333 1328.5,437C 1329.45,437.483 1330.45,437.649 1331.5,437.5C 1331.5,438.5 1331.5,439.5 1331.5,440.5C 1328.41,438.075 1325.08,436.075 1321.5,434.5C 1308.59,425.714 1294.59,419.047 1279.5,414.5C 1274.85,412.081 1269.85,410.414 1264.5,409.5C 1258.5,407.833 1252.5,406.167 1246.5,404.5 Z"/></g>
<g><path style="opacity:1" fill="#fedf1b" d="M 1279.5,414.5 C 1294.59,419.047 1308.59,425.714 1321.5,434.5C 1317.77,433.628 1314.11,432.461 1310.5,431C 1309.17,430.333 1309.17,429.667 1310.5,429C 1306.11,426.641 1301.45,425.141 1296.5,424.5C 1296.5,425.5 1296.5,426.5 1296.5,427.5C 1290.55,427.628 1290.21,426.961 1295.5,425.5C 1295.37,421.348 1293.87,420.682 1291,423.5C 1289.58,423.406 1288.08,423.072 1286.5,422.5C 1288.28,421.685 1288.94,420.518 1288.5,419C 1285.71,418.866 1283.04,419.199 1280.5,420C 1279.65,418.442 1280.32,417.442 1282.5,417C 1281.06,416.623 1280.06,415.79 1279.5,414.5 Z"/></g>
<g><path style="opacity:1" fill="#fed11c" d="M 701.5,435.5 C 701.167,435.5 700.833,435.5 700.5,435.5C 700.167,435.5 699.833,435.5 699.5,435.5C 643.5,435.5 587.5,435.5 531.5,435.5C 531.918,434.778 532.584,434.278 533.5,434C 532.289,433.107 532.289,432.274 533.5,431.5C 534.386,432.325 534.719,433.325 534.5,434.5C 589.5,434.5 644.5,434.5 699.5,434.5C 699.281,433.325 699.614,432.325 700.5,431.5C 701.429,432.689 701.762,434.022 701.5,435.5 Z"/></g>
<g><path style="opacity:1" fill="#fd0001" d="M 688.5,978.5 C 667.167,978.5 645.833,978.5 624.5,978.5C 623.504,978.586 622.671,978.252 622,977.5C 621.169,828.639 621.336,679.806 622.5,531C 622.164,529.97 621.497,529.47 620.5,529.5C 620.5,528.833 620.167,528.5 619.5,528.5C 590.671,527.502 561.671,527.169 532.5,527.5C 532.5,500.833 532.5,474.167 532.5,447.5C 534.153,446.395 535.82,446.229 537.5,447C 538.647,444.915 537.98,443.415 535.5,442.5C 537.227,439.148 538.893,438.981 540.5,442C 541.167,442.667 541.833,442.667 542.5,442C 543.38,440.644 543.714,439.144 543.5,437.5C 591.5,437.5 639.5,437.5 687.5,437.5C 689.217,440.316 688.551,442.483 685.5,444C 686.743,445.154 687.743,446.488 688.5,448C 687.174,625.011 687.174,801.845 688.5,978.5 Z"/></g>
<g><path style="opacity:1" fill="#f00d04" d="M 975.5,416.5 C 974.553,420.479 974.386,424.479 975,428.5C 973.575,427.921 971.908,427.921 970,428.5C 968.167,432.403 966.501,436.403 965,440.5C 961.833,442.333 959.333,444.833 957.5,448C 959.464,450.312 959.797,452.812 958.5,455.5C 957.702,453.922 957.202,452.256 957,450.5C 956.25,449.874 955.416,449.374 954.5,449C 955.226,445.969 954.559,446.136 952.5,449.5C 953.706,451.516 953.706,453.516 952.5,455.5C 951.017,453.054 949.851,453.388 949,456.5C 948.722,455.584 948.222,454.918 947.5,454.5C 955.371,440.758 964.705,428.091 975.5,416.5 Z"/></g>
<g><path style="opacity:1" fill="#fb0102" d="M 699.5,435.5 C 699.833,435.5 700.167,435.5 700.5,435.5C 700.83,616.528 700.496,797.528 699.5,978.5C 695.833,978.5 692.167,978.5 688.5,978.5C 687.174,801.845 687.174,625.011 688.5,448C 687.743,446.488 686.743,445.154 685.5,444C 688.551,442.483 689.217,440.316 687.5,437.5C 639.5,437.5 591.5,437.5 543.5,437.5C 543.714,439.144 543.38,440.644 542.5,442C 541.833,442.667 541.167,442.667 540.5,442C 538.893,438.981 537.227,439.148 535.5,442.5C 537.98,443.415 538.647,444.915 537.5,447C 535.82,446.229 534.153,446.395 532.5,447.5C 532.5,443.833 532.5,440.167 532.5,436.5C 588.336,436.832 644.002,436.499 699.5,435.5 Z"/></g>
<g><path style="opacity:1" fill="#fed622" d="M 531.5,435.5 C 531.5,466.5 531.5,497.5 531.5,528.5C 531.5,528.833 531.5,529.167 531.5,529.5C 530.167,529.5 528.833,529.5 527.5,529.5C 527.5,528.5 527.5,527.5 527.5,526.5C 528.5,526.5 529.5,526.5 530.5,526.5C 530.169,495.995 530.502,465.662 531.5,435.5 Z"/></g>
<g><path style="opacity:1" fill="#db1a00" d="M 700.5,435.5 C 700.833,435.5 701.167,435.5 701.5,435.5C 701.5,616.833 701.5,798.167 701.5,979.5C 675.833,979.5 650.167,979.5 624.5,979.5C 624.5,979.167 624.5,978.833 624.5,978.5C 645.833,978.5 667.167,978.5 688.5,978.5C 692.167,978.5 695.833,978.5 699.5,978.5C 700.496,797.528 700.83,616.528 700.5,435.5 Z"/></g>
<g><path style="opacity:1" fill="#d61b00" d="M 531.5,435.5 C 587.5,435.5 643.5,435.5 699.5,435.5C 644.002,436.499 588.336,436.832 532.5,436.5C 532.5,440.167 532.5,443.833 532.5,447.5C 532.5,474.167 532.5,500.833 532.5,527.5C 561.671,527.169 590.671,527.502 619.5,528.5C 590.167,528.5 560.833,528.5 531.5,528.5C 531.5,497.5 531.5,466.5 531.5,435.5 Z"/></g>
<g><path style="opacity:1" fill="#fece24" d="M 701.5,435.5 C 702.169,616.021 702.836,796.687 703.5,977.5C 703.253,978.713 702.586,979.38 701.5,979.5C 701.5,798.167 701.5,616.833 701.5,435.5 Z"/></g>
<g><path style="opacity:1" fill="#ea1702" d="M 1090.5,436.5 C 1081.51,443.16 1072.51,449.826 1063.5,456.5C 1064.2,454.284 1065.54,452.451 1067.5,451C 1066.22,450.316 1065.05,450.483 1064,451.5C 1063.49,450.004 1063.99,448.837 1065.5,448C 1068.98,447.699 1072.31,446.865 1075.5,445.5C 1074.5,444.667 1073.5,443.833 1072.5,443C 1072.83,442.667 1073.17,442.333 1073.5,442C 1070.97,439.916 1070.97,437.916 1073.5,436C 1072.71,434.915 1072.04,433.748 1071.5,432.5C 1075.08,432.269 1078.74,432.269 1082.5,432.5C 1080.11,434.893 1077.44,436.893 1074.5,438.5C 1073.36,439.425 1073.36,440.259 1074.5,441C 1077.96,442.111 1079.96,440.944 1080.5,437.5C 1083.88,437.54 1087.21,437.207 1090.5,436.5 Z"/></g>
<g><path style="opacity:1" fill="#fd0002" d="M 1278.5,464.5 C 1286.99,467.571 1294.65,471.904 1301.5,477.5C 1302.34,479.173 1303.68,480.34 1305.5,481C 1303.72,482.671 1303.39,484.504 1304.5,486.5C 1306.83,487.167 1309.17,487.833 1311.5,488.5C 1312.1,489.795 1312.6,491.128 1313,492.5C 1313.33,491.833 1313.67,491.167 1314,490.5C 1316.74,493.447 1319.57,496.281 1322.5,499C 1323.17,499.667 1323.83,499.667 1324.5,499C 1323.29,498.107 1323.29,497.274 1324.5,496.5C 1328.28,499.082 1330.12,502.415 1330,506.5C 1331,507.833 1332,507.833 1333,506.5C 1336.51,510.688 1335.67,511.521 1330.5,509C 1329.11,507.829 1328.27,506.329 1328,504.5C 1327.78,507.126 1327.95,509.459 1328.5,511.5C 1331.5,511.5 1334.5,511.5 1337.5,511.5C 1337.4,513.834 1338.4,516 1340.5,518C 1341.74,518.311 1342.74,517.811 1343.5,516.5C 1344.18,516.863 1344.85,517.196 1345.5,517.5C 1351.57,523.754 1356.74,530.754 1361,538.5C 1366.74,548.646 1371.91,558.98 1376.5,569.5C 1380.33,581.812 1383.66,594.146 1386.5,606.5C 1386.83,611.167 1387.17,615.833 1387.5,620.5C 1387.5,627.5 1387.5,634.5 1387.5,641.5C 1360.5,641.667 1333.5,641.5 1306.5,641C 1305.69,635.249 1305.19,629.416 1305,623.5C 1304.96,621.026 1304.13,619.026 1302.5,617.5C 1302.5,616.833 1302.17,616.5 1301.5,616.5C 1299.91,607.047 1296.58,598.381 1291.5,590.5C 1291.17,589.167 1290.83,587.833 1290.5,586.5C 1292.2,582.338 1290.87,579.505 1286.5,578C 1286.83,577.667 1287.17,577.333 1287.5,577C 1285.5,575.667 1283.83,574 1282.5,572C 1283.17,571.667 1283.83,571.333 1284.5,571C 1282.83,570.667 1281.17,570.333 1279.5,570C 1278.92,568.583 1277.92,567.75 1276.5,567.5C 1275.52,566.185 1274.52,564.852 1273.5,563.5C 1273.71,562.914 1274.04,562.414 1274.5,562C 1272.97,560.632 1271.47,560.132 1270,560.5C 1270.31,558.557 1270.31,556.557 1270,554.5C 1269.67,555.167 1269.33,555.833 1269,556.5C 1266.04,554.522 1263.21,553.188 1260.5,552.5C 1262,551.443 1263.67,550.776 1265.5,550.5C 1268.13,551.553 1270.8,552.053 1273.5,552C 1274.21,550.657 1273.88,549.324 1272.5,548C 1269.13,547.94 1266.29,546.773 1264,544.5C 1262.56,545.26 1261.06,545.926 1259.5,546.5C 1252.18,543.425 1244.52,542.092 1236.5,542.5C 1181.63,531.187 1142.46,550.853 1119,601.5C 1112.63,618.26 1110.13,635.593 1111.5,653.5C 1111.94,666.597 1115.28,679.264 1121.5,691.5C 1122.18,691.863 1122.85,692.196 1123.5,692.5C 1126.89,698.267 1130.56,703.934 1134.5,709.5C 1135.36,711.787 1135.52,714.12 1135,716.5C 1137.84,719.011 1140.34,721.844 1142.5,725C 1144.76,725.642 1146.93,726.475 1149,727.5C 1149.41,727.043 1149.91,726.709 1150.5,726.5C 1151.7,727.531 1153.03,728.365 1154.5,729C 1151.77,729.639 1151.27,730.806 1153,732.5C 1153.67,729.833 1154.33,729.833 1155,732.5C 1156.18,731.269 1157.35,731.269 1158.5,732.5C 1157.5,733.167 1156.5,733.833 1155.5,734.5C 1155.83,734.833 1156.17,735.167 1156.5,735.5C 1158.1,735.39 1159.76,735.057 1161.5,734.5C 1163.17,736.086 1165.17,736.753 1167.5,736.5C 1167.89,739.254 1168.22,741.754 1168.5,744C 1172.31,744.148 1175.48,745.648 1178,748.5C 1182,745.891 1186.16,745.391 1190.5,747C 1191.63,748.016 1191.3,748.683 1189.5,749C 1191.65,749.579 1193.82,750.079 1196,750.5C 1447.35,750.496 1698.85,750.496 1950.5,750.5C 1950.5,777.833 1950.5,805.167 1950.5,832.5C 1699.08,832.492 1447.75,832.492 1196.5,832.5C 1189.18,831.613 1181.85,830.947 1174.5,830.5C 1174.17,830.5 1173.83,830.5 1173.5,830.5C 1173.5,829.5 1173.5,828.5 1173.5,827.5C 1170.26,826.605 1167.1,826.605 1164,827.5C 1161.73,826.924 1160.73,825.59 1161,823.5C 1163.15,826.112 1163.98,826.112 1163.5,823.5C 1164.72,822.386 1166.06,822.219 1167.5,823C 1167.93,823.92 1168.26,824.753 1168.5,825.5C 1169.83,824.5 1171.17,823.5 1172.5,822.5C 1169.63,821.694 1167.13,820.36 1165,818.5C 1158.99,822.719 1152.49,823.552 1145.5,821C 1143.45,820.07 1141.95,818.57 1141,816.5C 1140.67,817.167 1140.33,817.833 1140,818.5C 1136.04,816.811 1134.54,813.811 1135.5,809.5C 1134.07,809.579 1132.74,809.246 1131.5,808.5C 1130.47,810.04 1129.13,810.54 1127.5,810C 1130.04,808.901 1130.04,807.735 1127.5,806.5C 1124.31,809.023 1122.98,808.023 1123.5,803.5C 1121.01,803.702 1118.68,803.202 1116.5,802C 1117.45,801.282 1117.62,800.449 1117,799.5C 1115.28,799.411 1113.45,799.744 1111.5,800.5C 1110.17,798.833 1108.83,797.167 1107.5,795.5C 1106.71,796.355 1107.04,797.189 1108.5,798C 1107.76,799.039 1106.76,799.539 1105.5,799.5C 1078.93,780.672 1059.27,756.339 1046.5,726.5C 1046.39,724.352 1047.06,724.019 1048.5,725.5C 1049.85,724.05 1051.52,723.383 1053.5,723.5C 1054.39,721.09 1055.06,718.59 1055.5,716C 1055.17,714.833 1054.83,713.667 1054.5,712.5C 1053.7,714.078 1053.2,715.744 1053,717.5C 1051.99,718.337 1050.82,718.67 1049.5,718.5C 1049.66,715.813 1049.5,713.146 1049,710.5C 1047.99,709.663 1046.82,709.33 1045.5,709.5C 1045.2,714.718 1043.7,715.384 1041,711.5C 1040.85,708.429 1040.02,705.596 1038.5,703C 1038.83,702.667 1039.17,702.333 1039.5,702C 1038.31,700.981 1037.31,699.814 1036.5,698.5C 1037.64,697.575 1037.64,696.741 1036.5,696C 1037.45,695.383 1038.28,695.549 1039,696.5C 1039.43,690.14 1038.6,683.973 1036.5,678C 1034.78,677.261 1033.11,676.427 1031.5,675.5C 1031.22,670.761 1030.22,666.427 1028.5,662.5C 1024.17,621.8 1031.5,583.467 1050.5,547.5C 1051.5,547.5 1052.5,547.5 1053.5,547.5C 1053.34,548.873 1053.51,550.207 1054,551.5C 1054.5,551 1055,550.5 1055.5,550C 1054.29,548.887 1054.29,547.72 1055.5,546.5C 1055.02,545.522 1054.36,544.689 1053.5,544C 1054.88,542.075 1056.38,540.241 1058,538.5C 1059.36,539.38 1060.86,539.714 1062.5,539.5C 1062.34,537.473 1062.5,535.473 1063,533.5C 1063.42,534.672 1064.09,535.672 1065,536.5C 1066.89,535.383 1067.73,533.716 1067.5,531.5C 1066.5,531.5 1065.5,531.5 1064.5,531.5C 1064.52,525.247 1066.02,524.914 1069,530.5C 1069.92,529.953 1070.76,529.287 1071.5,528.5C 1070.64,525.275 1071.97,523.108 1075.5,522C 1071.85,522.164 1071.02,520.997 1073,518.5C 1073.67,519.833 1074.33,519.833 1075,518.5C 1074.35,515.648 1075.51,513.481 1078.5,512C 1080.13,511.506 1081.8,511.34 1083.5,511.5C 1083.19,509.554 1083.19,507.887 1083.5,506.5C 1084.5,507 1085.5,507.5 1086.5,508C 1085.66,509.011 1085.33,510.178 1085.5,511.5C 1087.82,511.338 1089.49,510.172 1090.5,508C 1092.87,507.438 1095.2,507.604 1097.5,508.5C 1100.24,508.295 1100.9,507.129 1099.5,505C 1100.03,503.441 1100.7,501.941 1101.5,500.5C 1100.02,499.52 1098.69,498.353 1097.5,497C 1096.26,496.544 1095.42,497.044 1095,498.5C 1094.83,498 1094.67,497.5 1094.5,497C 1096.1,495.419 1097.1,493.919 1097.5,492.5C 1098.39,493.325 1098.72,494.325 1098.5,495.5C 1102.27,496.074 1105.27,494.907 1107.5,492C 1106.27,490.471 1104.77,489.304 1103,488.5C 1102.53,487.423 1102.7,486.423 1103.5,485.5C 1103.5,484.833 1103.83,484.5 1104.5,484.5C 1109.27,483.109 1113.27,481.275 1116.5,479C 1117.47,475.595 1118.97,475.095 1121,477.5C 1122.11,475.963 1123.61,475.297 1125.5,475.5C 1125.52,480.502 1126.86,480.835 1129.5,476.5C 1128.5,475.833 1127.5,475.167 1126.5,474.5C 1126.85,473.304 1127.35,473.304 1128,474.5C 1129.54,472.696 1131.21,471.029 1133,469.5C 1133.33,469.833 1133.67,470.167 1134,470.5C 1134.9,469.299 1136.07,468.465 1137.5,468C 1136.26,467.768 1135.26,467.268 1134.5,466.5C 1144.64,460.617 1155.64,456.617 1167.5,454.5C 1174.36,453.828 1181.19,452.828 1188,451.5C 1191.81,452.146 1195.65,452.646 1199.5,453C 1200.13,453.75 1200.63,454.584 1201,455.5C 1202.17,454.107 1203.67,453.273 1205.5,453C 1204.83,452.667 1204.17,452.333 1203.5,452C 1205.53,450.994 1207.7,450.494 1210,450.5C 1215.49,451.083 1220.99,451.583 1226.5,452C 1225.3,452.654 1225.3,453.154 1226.5,453.5C 1233.4,452.015 1240.4,452.515 1247.5,455C 1245.1,455.186 1242.77,455.686 1240.5,456.5C 1244.49,457.701 1248.49,457.701 1252.5,456.5C 1253.17,456.667 1253.83,456.833 1254.5,457C 1252.36,457.743 1252.19,458.576 1254,459.5C 1255.33,460.833 1256.67,460.833 1258,459.5C 1259.26,459.759 1260.26,460.426 1261,461.5C 1261.33,460.833 1261.67,460.167 1262,459.5C 1264.2,464.231 1265.87,464.565 1267,460.5C 1267.59,463.145 1268.92,463.811 1271,462.5C 1273.21,464.111 1275.71,464.778 1278.5,464.5 Z"/></g>
<g><path style="opacity:1" fill="#ed1104" d="M 1333.5,441.5 C 1335.26,441.877 1336.92,442.544 1338.5,443.5C 1339.48,443.023 1340.31,442.357 1341,441.5C 1342.17,443.333 1343.33,445.167 1344.5,447C 1348.54,448.168 1351.88,450.335 1354.5,453.5C 1357.18,450.557 1357.85,450.89 1356.5,454.5C 1358.48,456.795 1359.65,459.461 1360,462.5C 1369.22,463.881 1374.72,469.215 1376.5,478.5C 1379.13,479.54 1381.47,480.373 1383.5,481C 1381.72,482.067 1381.22,483.567 1382,485.5C 1382.33,484.5 1382.67,483.5 1383,482.5C 1389.33,484.25 1389.83,486.75 1384.5,490C 1385,490.5 1385.5,491 1386,491.5C 1387.49,490.253 1388.99,490.253 1390.5,491.5C 1390.29,492.086 1389.96,492.586 1389.5,493C 1390.77,493.9 1391.77,495.066 1392.5,496.5C 1393.77,495.572 1395.1,495.405 1396.5,496C 1398.74,498.03 1400.24,500.53 1401,503.5C 1402.83,502.333 1404.33,500.833 1405.5,499C 1403.71,498.804 1402.38,497.971 1401.5,496.5C 1403.4,495.534 1405.4,495.201 1407.5,495.5C 1407.5,498.167 1407.5,500.833 1407.5,503.5C 1406.5,503.5 1405.5,503.5 1404.5,503.5C 1404.26,509.806 1404.26,516.139 1404.5,522.5C 1390.16,497.302 1372.16,474.802 1350.5,455C 1344.65,450.636 1338.98,446.136 1333.5,441.5 Z"/></g>
<g><path style="opacity:1" fill="#e51700" d="M 1278.5,464.5 C 1275.71,464.778 1273.21,464.111 1271,462.5C 1268.92,463.811 1267.59,463.145 1267,460.5C 1265.87,464.565 1264.2,464.231 1262,459.5C 1261.67,460.167 1261.33,460.833 1261,461.5C 1260.26,460.426 1259.26,459.759 1258,459.5C 1256.67,460.833 1255.33,460.833 1254,459.5C 1252.19,458.576 1252.36,457.743 1254.5,457C 1253.83,456.833 1253.17,456.667 1252.5,456.5C 1248.49,457.701 1244.49,457.701 1240.5,456.5C 1242.77,455.686 1245.1,455.186 1247.5,455C 1240.4,452.515 1233.4,452.015 1226.5,453.5C 1225.3,453.154 1225.3,452.654 1226.5,452C 1220.99,451.583 1215.49,451.083 1210,450.5C 1207.7,450.494 1205.53,450.994 1203.5,452C 1204.17,452.333 1204.83,452.667 1205.5,453C 1203.67,453.273 1202.17,454.107 1201,455.5C 1200.63,454.584 1200.13,453.75 1199.5,453C 1195.65,452.646 1191.81,452.146 1188,451.5C 1181.19,452.828 1174.36,453.828 1167.5,454.5C 1205.6,444.896 1242.6,448.23 1278.5,464.5 Z"/></g>
<g><path style="opacity:1" fill="#ea1004" d="M 1134.5,466.5 C 1135.26,467.268 1136.26,467.768 1137.5,468C 1136.07,468.465 1134.9,469.299 1134,470.5C 1133.67,470.167 1133.33,469.833 1133,469.5C 1131.21,471.029 1129.54,472.696 1128,474.5C 1127.35,473.304 1126.85,473.304 1126.5,474.5C 1127.5,475.167 1128.5,475.833 1129.5,476.5C 1126.86,480.835 1125.52,480.502 1125.5,475.5C 1123.61,475.297 1122.11,475.963 1121,477.5C 1118.97,475.095 1117.47,475.595 1116.5,479C 1113.27,481.275 1109.27,483.109 1104.5,484.5C 1113.5,476.994 1123.5,470.994 1134.5,466.5 Z"/></g>
<g><path style="opacity:1" fill="#f00d04" d="M 947.5,454.5 C 946.986,456.366 946.32,458.2 945.5,460C 945.892,461.011 946.559,461.511 947.5,461.5C 946.088,462.806 944.421,463.64 942.5,464C 943.925,465.714 943.592,467.047 941.5,468C 942.167,468.667 942.833,469.333 943.5,470C 943.393,472.935 943.393,475.935 943.5,479C 941.714,479.196 940.381,480.029 939.5,481.5C 941.636,484.599 941.97,487.932 940.5,491.5C 939.914,491.291 939.414,490.957 939,490.5C 939.093,487.044 938.093,484.044 936,481.5C 934.691,483.891 933.691,483.891 933,481.5C 932.342,483.108 932.842,484.275 934.5,485C 933.73,487.567 932.73,490.067 931.5,492.5C 932.262,492.911 933.262,493.077 934.5,493C 932.103,494.718 929.436,495.885 926.5,496.5C 927.347,498.061 927.014,499.561 925.5,501C 926.783,503.795 926.783,506.628 925.5,509.5C 925.089,508.738 924.923,507.738 925,506.5C 922.935,507.628 922.268,509.294 923,511.5C 924.268,511.384 925.602,511.051 927,510.5C 927.49,511.793 927.657,513.127 927.5,514.5C 925.123,514.216 922.956,514.216 921,514.5C 920.582,518.934 919.749,523.267 918.5,527.5C 916.379,527.675 914.379,527.341 912.5,526.5C 914.64,519.415 916.973,512.415 919.5,505.5C 924.07,496.691 928.403,487.691 932.5,478.5C 936.999,470.164 941.999,462.164 947.5,454.5 Z"/></g>
<g><path style="opacity:1" fill="#ed1205" d="M 1301.5,477.5 C 1319.04,487.709 1333.71,501.042 1345.5,517.5C 1344.85,517.196 1344.18,516.863 1343.5,516.5C 1342.74,517.811 1341.74,518.311 1340.5,518C 1338.4,516 1337.4,513.834 1337.5,511.5C 1334.5,511.5 1331.5,511.5 1328.5,511.5C 1327.95,509.459 1327.78,507.126 1328,504.5C 1328.27,506.329 1329.11,507.829 1330.5,509C 1335.67,511.521 1336.51,510.688 1333,506.5C 1332,507.833 1331,507.833 1330,506.5C 1330.12,502.415 1328.28,499.082 1324.5,496.5C 1323.29,497.274 1323.29,498.107 1324.5,499C 1323.83,499.667 1323.17,499.667 1322.5,499C 1319.57,496.281 1316.74,493.447 1314,490.5C 1313.67,491.167 1313.33,491.833 1313,492.5C 1312.6,491.128 1312.1,489.795 1311.5,488.5C 1309.17,487.833 1306.83,487.167 1304.5,486.5C 1303.39,484.504 1303.72,482.671 1305.5,481C 1303.68,480.34 1302.34,479.173 1301.5,477.5 Z"/></g>
<g><path style="opacity:1" fill="#fdd42c" d="M 932.5,478.5 C 928.403,487.691 924.07,496.691 919.5,505.5C 920.516,502.8 920.516,500.134 919.5,497.5C 919.938,496.494 920.604,496.494 921.5,497.5C 922.731,496.349 922.731,495.183 921.5,494C 925.619,489.109 929.286,483.942 932.5,478.5 Z"/></g>
<g><path style="opacity:1" fill="#ee1102" d="M 1026.5,498.5 C 1020.74,507.016 1015.74,516.016 1011.5,525.5C 1009.01,529.151 1007.01,533.151 1005.5,537.5C 998.98,551.392 993.647,565.725 989.5,580.5C 988.292,579.766 986.959,579.433 985.5,579.5C 985.5,578.167 985.5,576.833 985.5,575.5C 986.552,575.351 987.552,575.517 988.5,576C 987.289,576.893 987.289,577.726 988.5,578.5C 988.833,578.167 989.167,577.833 989.5,577.5C 989.966,572.677 991.299,568.177 993.5,564C 992.426,563.261 991.759,562.261 991.5,561C 992.732,557.61 993.566,557.777 994,561.5C 994.924,556.958 994.09,552.791 991.5,549C 991.833,548.5 992.167,548 992.5,547.5C 993.167,548.5 993.833,549.5 994.5,550.5C 995.78,548.276 995.447,546.276 993.5,544.5C 994.833,541.833 994.833,539.167 993.5,536.5C 993.808,535.692 994.308,535.025 995,534.5C 995.842,537.689 997.175,540.689 999,543.5C 999.5,542.5 1000,541.5 1000.5,540.5C 999.276,538.161 999.276,535.828 1000.5,533.5C 1001.25,534.376 1001.75,535.376 1002,536.5C 1004.71,534.247 1004.88,531.581 1002.5,528.5C 1004.4,527.534 1006.4,527.201 1008.5,527.5C 1008.36,525.876 1009.03,524.71 1010.5,524C 1009.27,523.221 1008.27,522.221 1007.5,521C 1007.79,518 1007.79,514.834 1007.5,511.5C 1010.24,512.205 1012.91,512.205 1015.5,511.5C 1016.13,509.522 1016.13,507.355 1015.5,505C 1016.11,504.13 1016.94,503.63 1018,503.5C 1019.16,504.187 1020.33,504.353 1021.5,504C 1021.93,500.935 1023.6,499.102 1026.5,498.5 Z"/></g>
<g><path style="opacity:1" fill="#f00f03" d="M 1103.5,485.5 C 1102.7,486.423 1102.53,487.423 1103,488.5C 1104.77,489.304 1106.27,490.471 1107.5,492C 1105.27,494.907 1102.27,496.074 1098.5,495.5C 1098.72,494.325 1098.39,493.325 1097.5,492.5C 1097.1,493.919 1096.1,495.419 1094.5,497C 1094.67,497.5 1094.83,498 1095,498.5C 1095.42,497.044 1096.26,496.544 1097.5,497C 1098.69,498.353 1100.02,499.52 1101.5,500.5C 1100.7,501.941 1100.03,503.441 1099.5,505C 1100.9,507.129 1100.24,508.295 1097.5,508.5C 1095.2,507.604 1092.87,507.438 1090.5,508C 1089.49,510.172 1087.82,511.338 1085.5,511.5C 1085.33,510.178 1085.66,509.011 1086.5,508C 1085.5,507.5 1084.5,507 1083.5,506.5C 1083.19,507.887 1083.19,509.554 1083.5,511.5C 1081.8,511.34 1080.13,511.506 1078.5,512C 1075.51,513.481 1074.35,515.648 1075,518.5C 1074.33,519.833 1073.67,519.833 1073,518.5C 1071.02,520.997 1071.85,522.164 1075.5,522C 1071.97,523.108 1070.64,525.275 1071.5,528.5C 1070.76,529.287 1069.92,529.953 1069,530.5C 1066.02,524.914 1064.52,525.247 1064.5,531.5C 1065.5,531.5 1066.5,531.5 1067.5,531.5C 1067.73,533.716 1066.89,535.383 1065,536.5C 1064.09,535.672 1063.42,534.672 1063,533.5C 1062.5,535.473 1062.34,537.473 1062.5,539.5C 1060.86,539.714 1059.36,539.38 1058,538.5C 1056.38,540.241 1054.88,542.075 1053.5,544C 1054.36,544.689 1055.02,545.522 1055.5,546.5C 1054.29,547.72 1054.29,548.887 1055.5,550C 1055,550.5 1054.5,551 1054,551.5C 1053.51,550.207 1053.34,548.873 1053.5,547.5C 1052.5,547.5 1051.5,547.5 1050.5,547.5C 1063.23,522.452 1080.89,501.786 1103.5,485.5 Z"/></g>
<g><path style="opacity:1" fill="#fed223" d="M 1011.5,525.5 C 1012.41,527.452 1012.24,529.452 1011,531.5C 1009.37,533.837 1007.53,535.837 1005.5,537.5C 1007.01,533.151 1009.01,529.151 1011.5,525.5 Z"/></g>
<g><path style="opacity:1" fill="#fec935" d="M 531.5,529.5 C 531.5,529.167 531.5,528.833 531.5,528.5C 560.833,528.5 590.167,528.5 619.5,528.5C 620.167,528.5 620.5,528.833 620.5,529.5C 620.5,679.5 620.5,829.5 620.5,979.5C 619.5,831.668 619.167,683.668 619.5,535.5C 619.5,535.167 619.5,534.833 619.5,534.5C 619.5,532.833 619.5,531.167 619.5,529.5C 590.167,529.5 560.833,529.5 531.5,529.5 Z"/></g>
<g><path style="opacity:1" fill="#cc2200" d="M 620.5,529.5 C 621.497,529.47 622.164,529.97 622.5,531C 621.336,679.806 621.169,828.639 622,977.5C 622.671,978.252 623.504,978.586 624.5,978.5C 624.5,978.833 624.5,979.167 624.5,979.5C 623.167,979.5 621.833,979.5 620.5,979.5C 620.5,829.5 620.5,679.5 620.5,529.5 Z"/></g>
<g><path style="opacity:1" fill="#fee00b" d="M 619.5,535.5 C 619.167,683.668 619.5,831.668 620.5,979.5C 621.833,979.5 623.167,979.5 624.5,979.5C 650.167,979.5 675.833,979.5 701.5,979.5C 675.278,979.843 649.112,980.843 623,982.5C 621.989,981.663 620.822,981.33 619.5,981.5C 618.559,979.95 617.893,978.284 617.5,976.5C 617.5,976.167 617.5,975.833 617.5,975.5C 618.167,828.833 618.833,682.167 619.5,535.5 Z"/></g>
<g><path style="opacity:1" fill="#f9f300" d="M 619.5,534.5 C 619.5,534.833 619.5,535.167 619.5,535.5C 618.833,682.167 618.167,828.833 617.5,975.5C 617.833,828.498 617.5,681.498 616.5,534.5C 616.167,608.167 615.833,681.833 615.5,755.5C 615.5,829.503 616.167,903.17 617.5,976.5C 617.893,978.284 618.559,979.95 619.5,981.5C 618.796,983.344 617.463,983.844 615.5,983C 614.214,980.978 613.214,978.811 612.5,976.5C 613.498,828.874 613.832,681.207 613.5,533.5C 615.621,533.325 617.621,533.659 619.5,534.5 Z"/></g>
<g><path style="opacity:1" fill="#f7f200" d="M 539.5,533.5 C 563.5,533.5 587.5,533.5 611.5,533.5C 611.667,680.834 611.5,828.167 611,975.5C 610.167,976.5 609.333,977.5 608.5,978.5C 608.167,978 607.833,977.5 607.5,977C 609.495,829.938 610.162,682.771 609.5,535.5C 585.809,536.157 562.476,535.49 539.5,533.5 Z"/></g>
<g><path style="opacity:1" fill="#feeb08" d="M 617.5,975.5 C 617.5,975.833 617.5,976.167 617.5,976.5C 616.167,903.17 615.5,829.503 615.5,755.5C 615.833,681.833 616.167,608.167 616.5,534.5C 617.5,681.498 617.833,828.498 617.5,975.5 Z"/></g>
<g><path style="opacity:1" fill="#ef0c03" d="M 1236.5,542.5 C 1244.52,542.092 1252.18,543.425 1259.5,546.5C 1261.06,545.926 1262.56,545.26 1264,544.5C 1266.29,546.773 1269.13,547.94 1272.5,548C 1273.88,549.324 1274.21,550.657 1273.5,552C 1270.8,552.053 1268.13,551.553 1265.5,550.5C 1263.67,550.776 1262,551.443 1260.5,552.5C 1263.21,553.188 1266.04,554.522 1269,556.5C 1269.33,555.833 1269.67,555.167 1270,554.5C 1270.31,556.557 1270.31,558.557 1270,560.5C 1271.47,560.132 1272.97,560.632 1274.5,562C 1274.04,562.414 1273.71,562.914 1273.5,563.5C 1274.52,564.852 1275.52,566.185 1276.5,567.5C 1275.83,567.5 1275.17,567.5 1274.5,567.5C 1270.29,562.125 1265.29,557.625 1259.5,554C 1252.02,549.593 1244.35,545.76 1236.5,542.5 Z"/></g>
<g><path style="opacity:1" fill="#fdce26" d="M 1274.5,567.5 C 1275.17,567.5 1275.83,567.5 1276.5,567.5C 1280.66,572.486 1284.33,577.819 1287.5,583.5C 1283.9,580.35 1280.73,576.684 1278,572.5C 1277.09,573.654 1276.25,573.487 1275.5,572C 1275.83,571.667 1276.17,571.333 1276.5,571C 1275.69,569.887 1275.03,568.721 1274.5,567.5 Z"/></g>
<g><path style="opacity:1" fill="#e01800" d="M 1276.5,567.5 C 1277.92,567.75 1278.92,568.583 1279.5,570C 1281.17,570.333 1282.83,570.667 1284.5,571C 1283.83,571.333 1283.17,571.667 1282.5,572C 1283.83,574 1285.5,575.667 1287.5,577C 1287.17,577.333 1286.83,577.667 1286.5,578C 1290.87,579.505 1292.2,582.338 1290.5,586.5C 1289.73,585.306 1288.73,584.306 1287.5,583.5C 1284.33,577.819 1280.66,572.486 1276.5,567.5 Z"/></g>
<g><path style="opacity:1" fill="#ffd12a" d="M 1517.5,574.5 C 1522.08,592.382 1524.08,610.716 1523.5,629.5C 1522.55,628.081 1522.22,626.415 1522.5,624.5C 1521.86,607.725 1520.19,591.059 1517.5,574.5 Z"/></g>
<g><path style="opacity:1" fill="#fecd27" d="M 1291.5,590.5 C 1296.58,598.381 1299.91,607.047 1301.5,616.5C 1300.84,615.602 1300.18,614.602 1299.5,613.5C 1298.6,614.506 1297.94,614.506 1297.5,613.5C 1298.6,606.629 1296.6,600.796 1291.5,596C 1292.54,594.224 1292.54,592.391 1291.5,590.5 Z"/></g>
<g><path style="opacity:1" fill="#fed824" d="M 1376.5,569.5 C 1378.08,572.352 1379.58,575.352 1381,578.5C 1381.54,576.729 1382.37,576.396 1383.5,577.5C 1381.99,585.693 1383.33,592.693 1387.5,598.5C 1386.61,601.084 1386.27,603.751 1386.5,606.5C 1383.66,594.146 1380.33,581.812 1376.5,569.5 Z"/></g>
<g><path style="opacity:1" fill="#d61f00" d="M 1516.5,571.5 C 1516.26,572.791 1516.6,573.791 1517.5,574.5C 1520.19,591.059 1521.86,607.725 1522.5,624.5C 1520.65,607.537 1518.32,590.537 1515.5,573.5C 1515.54,572.584 1515.88,571.917 1516.5,571.5 Z"/></g>
<g><path style="opacity:1" fill="#ed1002" d="M 1420.5,559.5 C 1422.52,562.777 1424.02,566.443 1425,570.5C 1426.01,571.337 1427.18,571.67 1428.5,571.5C 1428.35,572.552 1428.52,573.552 1429,574.5C 1429.33,573.167 1429.67,571.833 1430,570.5C 1430.92,573.903 1430.09,576.736 1427.5,579C 1428.62,579.249 1429.62,579.749 1430.5,580.5C 1431.77,583.796 1432.93,587.129 1434,590.5C 1434.91,589.672 1435.58,588.672 1436,587.5C 1439.43,590.913 1440.26,594.913 1438.5,599.5C 1437.06,596.945 1435.89,594.279 1435,591.5C 1432.6,596.196 1431.93,601.196 1433,606.5C 1433.33,605.167 1433.67,603.833 1434,602.5C 1435.98,606.298 1437.82,610.132 1439.5,614C 1439,614.5 1438.5,615 1438,615.5C 1437.67,619.167 1437.33,622.833 1437,626.5C 1436.14,624.913 1435.47,623.246 1435,621.5C 1434.5,627.491 1434.33,633.491 1434.5,639.5C 1434.17,639.5 1433.83,639.5 1433.5,639.5C 1433.27,612.15 1428.94,585.483 1420.5,559.5 Z"/></g>
<g><path style="opacity:1" fill="#fed821" d="M 987.5,594.5 C 986.968,599.892 986.968,605.226 987.5,610.5C 987.561,613.481 986.728,616.148 985,618.5C 983.795,630.47 983.295,642.47 983.5,654.5C 981.923,634.333 983.256,614.333 987.5,594.5 Z"/></g>
<g><path style="opacity:1" fill="#d62100" d="M 989.5,581.5 C 988.673,585.807 988.007,590.14 987.5,594.5C 983.256,614.333 981.923,634.333 983.5,654.5C 983.507,663.223 984.174,671.889 985.5,680.5C 984.037,677.797 983.204,674.797 983,671.5C 981,650.167 981,628.833 983,607.5C 984.686,604.912 984.853,602.245 983.5,599.5C 984.938,596.483 985.938,593.316 986.5,590C 985.523,588.503 984.523,587.003 983.5,585.5C 984.504,581.647 985.338,581.647 986,585.5C 987.55,584.409 988.717,583.076 989.5,581.5 Z"/></g>
<g><path style="opacity:1" fill="#fde414" d="M 898.5,579.5 C 898.5,580.5 898.5,581.5 898.5,582.5C 896.1,593.572 894.6,604.905 894,616.5C 893.311,637.177 893.477,657.844 894.5,678.5C 892.493,679.679 892.16,679.179 893.5,677C 892.422,676.326 891.755,675.326 891.5,674C 893.101,670.8 892.601,667.967 890,665.5C 889.237,668.063 888.737,668.063 888.5,665.5C 892.108,648.795 892.441,631.961 889.5,615C 889.833,612.167 890.167,609.333 890.5,606.5C 891.971,605.619 892.804,604.286 893,602.5C 893.333,602.833 893.667,603.167 894,603.5C 894.169,596.476 894.669,589.476 895.5,582.5C 896.141,581.007 897.141,580.007 898.5,579.5 Z"/></g>
<g><path style="opacity:1" fill="#d91e00" d="M 898.5,582.5 C 898.32,586.215 898.654,589.882 899.5,593.5C 898.865,594.966 898.031,596.3 897,597.5C 893.847,627.483 893.68,657.483 896.5,687.5C 895.833,684.5 895.167,681.5 894.5,678.5C 893.477,657.844 893.311,637.177 894,616.5C 894.6,604.905 896.1,593.572 898.5,582.5 Z"/></g>
<g><path style="opacity:1" fill="#cc2200" d="M 1302.5,617.5 C 1304.13,619.026 1304.96,621.026 1305,623.5C 1305.19,629.416 1305.69,635.249 1306.5,641C 1333.5,641.5 1360.5,641.667 1387.5,641.5C 1387.5,634.5 1387.5,627.5 1387.5,620.5C 1388.36,627.671 1389.02,635.005 1389.5,642.5C 1361.17,642.5 1332.83,642.5 1304.5,642.5C 1304.72,634.082 1304.05,625.749 1302.5,617.5 Z"/></g>
<g><path style="opacity:1" fill="#cc2200" d="M 1523.5,630.5 C 1523.5,634.5 1523.5,638.5 1523.5,642.5C 1493.5,642.5 1463.5,642.5 1433.5,642.5C 1433.5,641.5 1433.5,640.5 1433.5,639.5C 1433.83,639.5 1434.17,639.5 1434.5,639.5C 1434.61,640.117 1434.94,640.617 1435.5,641C 1464.17,641.667 1492.83,641.667 1521.5,641C 1522.14,637.397 1522.8,633.897 1523.5,630.5 Z"/></g>
<g><path style="opacity:1" fill="#fec830" d="M 1433.5,642.5 C 1463.5,642.5 1493.5,642.5 1523.5,642.5C 1522.74,643.391 1521.74,644.058 1520.5,644.5C 1492.85,643.175 1465.19,643.175 1437.5,644.5C 1435.83,644.332 1434.5,643.665 1433.5,642.5 Z"/></g>
<g><path style="opacity:1" fill="#d81f00" d="M 1111.5,653.5 C 1113.47,667.022 1117.47,680.022 1123.5,692.5C 1122.85,692.196 1122.18,691.863 1121.5,691.5C 1115.28,679.264 1111.94,666.597 1111.5,653.5 Z"/></g>
<g><path style="opacity:1" fill="#ef0e04" d="M 896.5,687.5 C 898.167,687.5 899.833,687.5 901.5,687.5C 901.357,689.262 901.691,690.929 902.5,692.5C 900.112,695.482 900.612,698.149 904,700.5C 904.543,698.369 905.376,696.369 906.5,694.5C 908.245,698.626 909.245,702.959 909.5,707.5C 909.564,709.389 909.064,711.056 908,712.5C 907.502,709.518 907.335,706.518 907.5,703.5C 905.801,703.34 904.134,703.506 902.5,704C 901.232,707.587 901.566,711.087 903.5,714.5C 904.086,714.291 904.586,713.957 905,713.5C 905.042,718.557 905.208,723.557 905.5,728.5C 905.153,726.86 905.653,725.193 907,723.5C 908.651,726.273 910.151,729.106 911.5,732C 909.583,735.587 908.583,739.42 908.5,743.5C 902.348,725.412 898.348,706.746 896.5,687.5 Z"/></g>
<g><path style="opacity:1" fill="#ee0e03" d="M 1028.5,662.5 C 1030.22,666.427 1031.22,670.761 1031.5,675.5C 1033.11,676.427 1034.78,677.261 1036.5,678C 1038.6,683.973 1039.43,690.14 1039,696.5C 1038.28,695.549 1037.45,695.383 1036.5,696C 1037.64,696.741 1037.64,697.575 1036.5,698.5C 1037.31,699.814 1038.31,700.981 1039.5,702C 1039.17,702.333 1038.83,702.667 1038.5,703C 1040.02,705.596 1040.85,708.429 1041,711.5C 1043.7,715.384 1045.2,714.718 1045.5,709.5C 1046.82,709.33 1047.99,709.663 1049,710.5C 1049.5,713.146 1049.66,715.813 1049.5,718.5C 1050.82,718.67 1051.99,718.337 1053,717.5C 1053.2,715.744 1053.7,714.078 1054.5,712.5C 1054.83,713.667 1055.17,714.833 1055.5,716C 1055.06,718.59 1054.39,721.09 1053.5,723.5C 1051.52,723.383 1049.85,724.05 1048.5,725.5C 1047.06,724.019 1046.39,724.352 1046.5,726.5C 1036.48,706.421 1030.48,685.088 1028.5,662.5 Z"/></g>
<g><path style="opacity:1" fill="#fecc31" d="M 1196.5,743.5 C 1448.5,743.5 1700.5,743.5 1952.5,743.5C 1952.83,773.671 1952.5,803.671 1951.5,833.5C 1951.5,803.833 1951.5,774.167 1951.5,744.5C 1699.67,744.833 1448,744.5 1196.5,743.5 Z"/></g>
<g><path style="opacity:1" fill="#f50402" d="M 1134.5,709.5 C 1148.79,725.817 1166.46,736.817 1187.5,742.5C 1189.31,744.197 1191.64,745.03 1194.5,745C 1446.5,745.5 1698.5,745.667 1950.5,745.5C 1950.5,747.167 1950.5,748.833 1950.5,750.5C 1698.85,750.496 1447.35,750.496 1196,750.5C 1193.82,750.079 1191.65,749.579 1189.5,749C 1191.3,748.683 1191.63,748.016 1190.5,747C 1186.16,745.391 1182,745.891 1178,748.5C 1175.48,745.648 1172.31,744.148 1168.5,744C 1168.22,741.754 1167.89,739.254 1167.5,736.5C 1165.17,736.753 1163.17,736.086 1161.5,734.5C 1159.76,735.057 1158.1,735.39 1156.5,735.5C 1156.17,735.167 1155.83,734.833 1155.5,734.5C 1156.5,733.833 1157.5,733.167 1158.5,732.5C 1157.35,731.269 1156.18,731.269 1155,732.5C 1154.33,729.833 1153.67,729.833 1153,732.5C 1151.27,730.806 1151.77,729.639 1154.5,729C 1153.03,728.365 1151.7,727.531 1150.5,726.5C 1149.91,726.709 1149.41,727.043 1149,727.5C 1146.93,726.475 1144.76,725.642 1142.5,725C 1140.34,721.844 1137.84,719.011 1135,716.5C 1135.52,714.12 1135.36,711.787 1134.5,709.5 Z"/></g>
<g><path style="opacity:1" fill="#fcd820" d="M 1014.5,763.5 C 1016.64,766.472 1019.31,768.972 1022.5,771C 1022.17,771.333 1021.83,771.667 1021.5,772C 1025.72,776.379 1028.38,781.546 1029.5,787.5C 1023.5,780.181 1018.5,772.181 1014.5,763.5 Z"/></g>
<g><path style="opacity:1" fill="#e91402" d="M 1007.5,752.5 C 1009.58,756.336 1011.92,760.003 1014.5,763.5C 1018.5,772.181 1023.5,780.181 1029.5,787.5C 1030.11,788.391 1030.44,789.391 1030.5,790.5C 1028.88,789.962 1027.22,789.629 1025.5,789.5C 1025.33,788.178 1025.66,787.011 1026.5,786C 1024.63,784.634 1022.63,783.467 1020.5,782.5C 1019.4,780.368 1018.4,778.202 1017.5,776C 1017.83,775.667 1018.17,775.333 1018.5,775C 1016.65,773.482 1015.15,771.649 1014,769.5C 1013.52,770.448 1013.35,771.448 1013.5,772.5C 1012.45,772.649 1011.45,772.483 1010.5,772C 1008.09,769.252 1007.25,766.085 1008,762.5C 1008.65,763.696 1009.15,763.696 1009.5,762.5C 1008.59,761.672 1007.92,760.672 1007.5,759.5C 1008.53,757.197 1008.53,754.864 1007.5,752.5 Z"/></g>
<g><path style="opacity:1" fill="#e41601" d="M 925.5,788.5 C 927.41,789.684 929.076,791.184 930.5,793C 929.833,793.333 929.167,793.667 928.5,794C 929.253,795.487 930.086,795.654 931,794.5C 932.651,796.402 932.984,798.402 932,800.5C 933.494,799.253 934.994,799.253 936.5,800.5C 937.52,803.633 937.52,806.466 936.5,809C 938.693,810.064 940.693,811.398 942.5,813C 942.167,813.333 941.833,813.667 941.5,814C 943.931,817.078 944.931,820.578 944.5,824.5C 943.833,823.833 943.167,823.167 942.5,822.5C 936.306,811.446 930.639,800.112 925.5,788.5 Z"/></g>
<g><path style="opacity:1" fill="#fbdb1e" d="M 921.5,782.5 C 922.833,784.5 924.167,786.5 925.5,788.5C 930.639,800.112 936.306,811.446 942.5,822.5C 939.46,821.122 937.46,818.788 936.5,815.5C 935.675,814.614 934.675,814.281 933.5,814.5C 933.523,812.4 932.856,810.567 931.5,809C 931.645,808.228 931.978,807.561 932.5,807C 931.128,806.369 929.795,805.702 928.5,805C 928.735,804.127 929.069,803.293 929.5,802.5C 927.3,798.034 924.634,793.867 921.5,790C 921.203,787.554 921.203,785.054 921.5,782.5 Z"/></g>
<g><path style="opacity:1" fill="#ed1101" d="M 1173.5,830.5 C 1165.45,828.706 1157.45,826.706 1149.5,824.5C 1133.59,818.215 1118.92,809.882 1105.5,799.5C 1106.76,799.539 1107.76,799.039 1108.5,798C 1107.04,797.189 1106.71,796.355 1107.5,795.5C 1108.83,797.167 1110.17,798.833 1111.5,800.5C 1113.45,799.744 1115.28,799.411 1117,799.5C 1117.62,800.449 1117.45,801.282 1116.5,802C 1118.68,803.202 1121.01,803.702 1123.5,803.5C 1122.98,808.023 1124.31,809.023 1127.5,806.5C 1130.04,807.735 1130.04,808.901 1127.5,810C 1129.13,810.54 1130.47,810.04 1131.5,808.5C 1132.74,809.246 1134.07,809.579 1135.5,809.5C 1134.54,813.811 1136.04,816.811 1140,818.5C 1140.33,817.833 1140.67,817.167 1141,816.5C 1141.95,818.57 1143.45,820.07 1145.5,821C 1152.49,823.552 1158.99,822.719 1165,818.5C 1167.13,820.36 1169.63,821.694 1172.5,822.5C 1171.17,823.5 1169.83,824.5 1168.5,825.5C 1168.26,824.753 1167.93,823.92 1167.5,823C 1166.06,822.219 1164.72,822.386 1163.5,823.5C 1163.98,826.112 1163.15,826.112 1161,823.5C 1160.73,825.59 1161.73,826.924 1164,827.5C 1167.1,826.605 1170.26,826.605 1173.5,827.5C 1173.5,828.5 1173.5,829.5 1173.5,830.5 Z"/></g>
<g><path style="opacity:1" fill="#ee0d00" d="M 1174.5,830.5 C 1181.85,830.947 1189.18,831.613 1196.5,832.5C 1447.75,832.492 1699.08,832.492 1950.5,832.5C 1700.83,833.167 1451.17,833.833 1201.5,834.5C 1196.93,833.559 1192.26,833.226 1187.5,833.5C 1183.18,832.408 1178.85,831.408 1174.5,830.5 Z"/></g>
<g><path style="opacity:1" fill="#cd2000" d="M 1187.5,742.5 C 1190.46,743.159 1193.46,743.492 1196.5,743.5C 1448,744.5 1699.67,744.833 1951.5,744.5C 1951.5,774.167 1951.5,803.833 1951.5,833.5C 1951.5,833.833 1951.5,834.167 1951.5,834.5C 1701.5,834.5 1451.5,834.5 1201.5,834.5C 1451.17,833.833 1700.83,833.167 1950.5,832.5C 1950.5,805.167 1950.5,777.833 1950.5,750.5C 1950.5,748.833 1950.5,747.167 1950.5,745.5C 1698.5,745.667 1446.5,745.5 1194.5,745C 1191.64,745.03 1189.31,744.197 1187.5,742.5 Z"/></g>
<g><path style="opacity:1" fill="#fed921" d="M 1149.5,824.5 C 1157.45,826.706 1165.45,828.706 1173.5,830.5C 1173.83,830.5 1174.17,830.5 1174.5,830.5C 1178.85,831.408 1183.18,832.408 1187.5,833.5C 1185.09,833.331 1182.92,833.997 1181,835.5C 1171.87,832.004 1162.37,829.338 1152.5,827.5C 1151.66,826.265 1150.66,825.265 1149.5,824.5 Z"/></g>
<g><path style="opacity:1" fill="#ffc831" d="M 1187.5,833.5 C 1192.26,833.226 1196.93,833.559 1201.5,834.5C 1451.5,834.5 1701.5,834.5 1951.5,834.5C 1701,835.666 1450.33,835.833 1199.5,835C 1195.31,834.824 1191.31,834.324 1187.5,833.5 Z"/></g>
<g><path style="opacity:1" fill="#f6f100" d="M 1198.5,836.5 C 1449.5,836.333 1700.5,836.5 1951.5,837C 1701.79,837.168 1452.13,837.668 1202.5,838.5C 1201.83,838.167 1201.17,837.833 1200.5,837.5C 1199.3,837.846 1199.3,838.346 1200.5,839C 1448.5,839.333 1696.5,839.667 1944.5,840C 1695.65,840.169 1446.82,840.669 1198,841.5C 1196.37,841.375 1194.87,840.875 1193.5,840C 1195.35,838.97 1197.01,837.804 1198.5,836.5 Z"/></g>
<g><path style="opacity:1" fill="#f7f200" d="M 1199.5,843.5 C 1449.83,843.167 1700.17,843.5 1950.5,844.5C 1825.33,844.833 1700.17,845.167 1575,845.5C 1449.5,845.5 1324.33,844.833 1199.5,843.5 Z"/></g>
<g><path style="opacity:1" fill="#ef1004" d="M 1049.5,812.5 C 1069.63,832.941 1092.63,849.608 1118.5,862.5C 1115.11,864.308 1111.44,864.475 1107.5,863C 1111.27,862.234 1111.1,861.401 1107,860.5C 1106.45,861.289 1105.79,862.289 1105,863.5C 1103.89,862.24 1103.72,861.073 1104.5,860C 1103.05,858.883 1101.38,858.216 1099.5,858C 1100.28,856.927 1100.11,855.76 1099,854.5C 1097.48,857.006 1095.32,857.84 1092.5,857C 1094.99,855.088 1094.83,853.254 1092,851.5C 1090.9,853.053 1089.57,854.386 1088,855.5C 1087.84,853.005 1087.68,850.672 1087.5,848.5C 1085.58,847.692 1083.58,847.192 1081.5,847C 1079.59,841.528 1076.59,841.028 1072.5,845.5C 1071.7,842.946 1072.7,841.112 1075.5,840C 1073.1,839.804 1071.43,838.638 1070.5,836.5C 1071.17,836.167 1071.83,835.833 1072.5,835.5C 1071.26,834.643 1069.93,833.977 1068.5,833.5C 1067.8,836.344 1066.64,836.011 1065,832.5C 1064.67,832.833 1064.33,833.167 1064,833.5C 1063.73,831.899 1063.23,830.399 1062.5,829C 1062.83,828.667 1063.17,828.333 1063.5,828C 1058.95,826.142 1054.78,823.642 1051,820.5C 1050.91,817.993 1050.07,815.826 1048.5,814C 1049.06,813.617 1049.39,813.117 1049.5,812.5 Z"/></g>
<g><path style="opacity:1" fill="#ffe119" d="M 1951.5,881.5 C 1698.17,881.667 1444.83,881.5 1191.5,881C 1181.07,880.105 1170.73,878.605 1160.5,876.5C 1153.94,874.949 1147.61,872.949 1141.5,870.5C 1143.21,867.322 1145.55,866.822 1148.5,869C 1146.83,869.333 1145.17,869.667 1143.5,870C 1147.21,870.608 1150.88,871.442 1154.5,872.5C 1156.23,872.41 1157.89,872.077 1159.5,871.5C 1164.28,874.762 1169.61,876.262 1175.5,876C 1174.17,876.667 1174.17,877.333 1175.5,878C 1182.5,878.333 1189.5,878.667 1196.5,879C 1448.5,878.834 1700.17,879.667 1951.5,881.5 Z"/></g>
<g><path style="opacity:1" fill="#d71600" d="M 1160.5,876.5 C 1170.73,878.605 1181.07,880.105 1191.5,881C 1444.83,881.5 1698.17,881.667 1951.5,881.5C 1951.5,913.5 1951.5,945.5 1951.5,977.5C 1702.5,977.5 1453.5,977.5 1204.5,977.5C 1453,976.5 1701.67,976.167 1950.5,976.5C 1950.5,945.167 1950.5,913.833 1950.5,882.5C 1693.83,882.667 1437.17,882.5 1180.5,882C 1174.23,880.784 1167.89,879.451 1161.5,878C 1160.94,877.617 1160.61,877.117 1160.5,876.5 Z"/></g>
<g><path style="opacity:1" fill="#ef0d03" d="M 1071.5,943.5 C 1068.5,942.167 1065.5,940.833 1062.5,939.5C 1048.67,931.67 1035.67,922.67 1023.5,912.5C 1026.41,911.777 1029.24,911.444 1032,911.5C 1033.33,911.755 1034.33,912.422 1035,913.5C 1035.74,912.426 1036.74,911.759 1038,911.5C 1039.5,912.673 1041,913.839 1042.5,915C 1045.51,915.128 1048.51,915.128 1051.5,915C 1051.49,916.583 1051.83,918.249 1052.5,920C 1051.89,920.87 1051.06,921.37 1050,921.5C 1046.94,918.928 1043.44,917.595 1039.5,917.5C 1039.11,912.764 1037.78,912.431 1035.5,916.5C 1036.73,917.59 1037.56,918.924 1038,920.5C 1039.4,921.227 1040.9,921.727 1042.5,922C 1043.15,923.609 1043.98,925.109 1045,926.5C 1045.62,925.551 1045.45,924.718 1044.5,924C 1045.17,923.333 1045.83,923.333 1046.5,924C 1047.76,926.535 1049.76,928.202 1052.5,929C 1050.07,929.451 1049.9,930.285 1052,931.5C 1052.75,930.01 1053.91,929.01 1055.5,928.5C 1057.33,929.651 1059.33,930.318 1061.5,930.5C 1061.5,931.5 1061.5,932.5 1061.5,933.5C 1064.55,932.855 1066.71,933.855 1068,936.5C 1068.33,936.167 1068.67,935.833 1069,935.5C 1069.27,938.382 1070.11,941.049 1071.5,943.5 Z"/></g>
<g><path style="opacity:1" fill="#fede1d" d="M 1062.5,939.5 C 1065.5,940.833 1068.5,942.167 1071.5,943.5C 1081.93,949.047 1092.59,954.047 1103.5,958.5C 1098.82,957.915 1094.32,956.581 1090,954.5C 1088.1,957.38 1085.6,958.047 1082.5,956.5C 1082.83,955.833 1083.17,955.167 1083.5,954.5C 1081.95,953.548 1080.29,953.215 1078.5,953.5C 1078.65,952.448 1078.48,951.448 1078,950.5C 1076.93,951.28 1075.76,951.113 1074.5,950C 1075.83,949.667 1077.17,949.333 1078.5,949C 1074.64,946.907 1070.64,945.073 1066.5,943.5C 1064.81,942.479 1063.48,941.145 1062.5,939.5 Z"/></g>
<g><path style="opacity:1" fill="#d61f00" d="M 1131.5,966.5 C 1134.85,966.335 1138.18,966.502 1141.5,967C 1145.59,969.073 1149.92,970.406 1154.5,971C 1164.41,971.899 1174.08,973.399 1183.5,975.5C 1165.65,974.794 1148.32,971.794 1131.5,966.5 Z"/></g>
<g><path style="opacity:1" fill="#f7f200" d="M 1215.5,987.5 C 1460.83,987.167 1706.17,987.5 1951.5,988.5C 1828.83,988.833 1706.17,989.167 1583.5,989.5C 1460.5,989.5 1337.83,988.833 1215.5,987.5 Z"/></g>
</svg>
