<svg xmlns="http://www.w3.org/2000/svg" width="2370" height="1283" viewBox="0 0 2370 1283" version="1.1"><path d="M 619.857 302.250 C 619.661 302.938, 619.731 325.325, 620.014 352 L 620.529 400.500 620.764 351.320 L 621 302.139 623.250 301.706 C 625.255 301.319, 625.213 301.258, 622.857 301.136 C 621.403 301.061, 620.053 301.563, 619.857 302.250 M 821 641 C 821 827.083, 821.228 979.106, 821.506 978.827 C 822.162 978.172, 822.153 303.819, 821.497 303.164 C 821.224 302.890, 821 454.917, 821 641 M 1198.803 306.746 C 1204.470 306.925, 1213.470 306.924, 1218.803 306.745 C 1224.136 306.565, 1219.500 306.419, 1208.500 306.420 C 1197.500 306.421, 1193.136 306.568, 1198.803 306.746 M 1057.788 346.500 C 1055.205 347.875, 1052.369 349, 1051.487 349 C 1050.604 349, 1050.130 349.401, 1050.432 349.890 C 1050.735 350.380, 1049.411 351.526, 1047.491 352.437 C 1045.571 353.348, 1044 354.471, 1044 354.933 C 1044 355.395, 1042.537 356.487, 1040.750 357.361 C 1038.963 358.235, 1035.700 360.527, 1033.500 362.454 C 1031.300 364.382, 1034.661 362.541, 1040.969 358.364 C 1047.277 354.187, 1054.815 349.429, 1057.719 347.789 C 1060.624 346.150, 1063 344.627, 1063 344.405 C 1063 343.760, 1062.736 343.866, 1057.788 346.500 M 1358.897 347.204 C 1361.866 349.017, 1369.149 353.709, 1375.081 357.630 C 1381.014 361.552, 1385.358 363.945, 1384.735 362.947 C 1384.112 361.949, 1383.354 361.211, 1383.051 361.307 C 1382.748 361.404, 1379.518 359.349, 1375.873 356.741 C 1372.228 354.133, 1368.756 352, 1368.158 352 C 1367.560 352, 1366.592 351.105, 1366.006 350.012 C 1365.421 348.918, 1363.718 347.724, 1362.221 347.358 C 1360.725 346.992, 1359.275 346.372, 1359 345.981 C 1358.725 345.590, 1357.375 344.963, 1356 344.589 C 1354.625 344.215, 1355.929 345.392, 1358.897 347.204 M 1013.500 377.151 C 1006.378 383.689, 998.851 391.178, 999.137 391.442 C 999.337 391.625, 1003.077 388.465, 1007.448 384.419 C 1011.820 380.373, 1015.195 376.876, 1014.948 376.648 C 1014.702 376.420, 1014.050 376.646, 1013.500 377.151 M 990.409 399.270 C 979.310 411.049, 973.291 417.720, 972.508 419.110 C 972.077 419.875, 972.617 419.600, 973.707 418.500 C 977.984 414.185, 997.105 393, 996.723 393 C 996.500 393, 993.658 395.822, 990.409 399.270 M 1177.500 404.567 L 1170.500 405.898 1177 405.314 C 1180.575 404.993, 1185.975 404.407, 1189 404.012 L 1194.500 403.294 1189.500 403.266 C 1186.750 403.250, 1181.350 403.836, 1177.500 404.567 M 1449.123 425.750 C 1456.168 434.487, 1471.483 456.720, 1475.979 464.739 C 1477.286 467.070, 1478.537 468.796, 1478.759 468.574 C 1478.981 468.353, 1478.580 467.120, 1477.869 465.836 C 1477.157 464.551, 1476.653 463.216, 1476.748 462.869 C 1476.843 462.522, 1476.038 461.440, 1474.960 460.464 C 1473.882 459.488, 1473 458.311, 1473 457.847 C 1473 457.383, 1469.734 452.390, 1465.742 446.752 C 1461.749 441.113, 1457.721 435.311, 1456.789 433.857 C 1455.857 432.403, 1453.500 429.478, 1451.552 427.357 C 1449.604 425.236, 1448.007 423.183, 1448.005 422.795 C 1448 422.045, 1443.197 417, 1442.488 417 C 1442.257 417, 1445.243 420.938, 1449.123 425.750 M 1119.736 421.518 C 1108.593 426.482, 1085 440.174, 1085 441.677 C 1085 442.285, 1089.168 439.992, 1092.500 437.551 C 1095.030 435.697, 1097.717 434.332, 1100 433.741 C 1100.275 433.670, 1101.391 432.782, 1102.480 431.767 C 1103.569 430.753, 1105.482 429.666, 1106.730 429.353 C 1107.979 429.040, 1109 428.469, 1109 428.084 C 1109 427.700, 1110.912 426.592, 1113.250 425.623 C 1115.588 424.654, 1119.230 422.992, 1121.345 421.930 C 1123.459 420.869, 1125.821 420, 1126.595 420 C 1127.368 420, 1128 419.550, 1128 419 C 1128 417.731, 1128.746 417.503, 1119.736 421.518 M 1311.940 429.428 C 1312.664 430.300, 1314.265 431.573, 1315.497 432.257 C 1316.730 432.941, 1319.709 434.574, 1322.119 435.887 C 1324.529 437.200, 1328.412 439.584, 1330.750 441.185 C 1333.088 442.786, 1335 443.866, 1335 443.585 C 1335 442.894, 1324.967 436.182, 1317.062 431.586 C 1313.522 429.527, 1311.217 428.556, 1311.940 429.428 M 952.828 444.756 C 950.600 448.411, 945.294 456.069, 943.477 458.250 C 942.675 459.212, 942.256 460, 942.545 460 C 942.834 460, 942.544 461.012, 941.900 462.250 C 939.841 466.206, 941.636 463.767, 948.889 452.750 C 952.782 446.837, 955.636 442.003, 955.233 442.006 C 954.830 442.010, 953.748 443.247, 952.828 444.756 M 1072.500 450.893 C 1066.450 455.764, 1060.610 460.819, 1059.521 462.125 C 1058.433 463.431, 1059.129 463.038, 1061.069 461.250 C 1063.008 459.462, 1064.877 458, 1065.221 458 C 1065.565 458, 1067.164 456.762, 1068.775 455.250 C 1070.386 453.738, 1074.227 450.700, 1077.310 448.500 C 1080.393 446.300, 1082.935 444.136, 1082.958 443.691 C 1082.981 443.246, 1083.520 443.203, 1084.155 443.595 C 1084.870 444.038, 1085.038 443.870, 1084.595 443.155 C 1084.203 442.520, 1083.796 442.008, 1083.691 442.018 C 1083.586 442.027, 1078.550 446.021, 1072.500 450.893 M 1336 444.860 C 1336 445.331, 1338.434 447.333, 1341.409 449.308 C 1344.383 451.283, 1350.142 456.184, 1354.206 460.200 C 1358.269 464.215, 1362.473 468.115, 1363.547 468.866 C 1364.621 469.617, 1361.123 465.955, 1355.774 460.727 C 1346.194 451.364, 1336 443.185, 1336 444.860 M 1250.500 454.648 C 1251.600 454.953, 1256.509 456.483, 1261.410 458.047 C 1266.310 459.612, 1269.685 460.308, 1268.910 459.595 C 1267.229 458.049, 1256.930 454.904, 1252 454.430 C 1250.075 454.245, 1249.400 454.343, 1250.500 454.648 M 1298 473.799 C 1298 474.304, 1300.588 476.416, 1303.750 478.492 C 1306.912 480.569, 1311.338 483.751, 1313.583 485.564 C 1316.255 487.721, 1317.667 488.366, 1317.667 487.430 C 1317.667 486.644, 1317.473 486.193, 1317.237 486.429 C 1316.898 486.769, 1306.776 479.567, 1301.500 475.232 C 1299.368 473.480, 1298 472.920, 1298 473.799 M 930.550 482.250 C 928.973 485.688, 926.900 489.625, 925.942 491 C 924.420 493.185, 922.068 500.316, 923.304 498.998 C 924.674 497.537, 934.893 476, 934.216 476 C 933.776 476, 932.126 478.813, 930.550 482.250 M 1039.294 483.750 C 1037.153 486.363, 1033.849 490.525, 1031.951 493 C 1028.908 496.968, 1028.796 497.308, 1031 495.878 C 1032.375 494.986, 1033.275 494.017, 1033 493.724 C 1032.725 493.432, 1033.737 492.046, 1035.250 490.644 C 1036.763 489.242, 1038 487.801, 1038 487.442 C 1038 487.082, 1039.388 485.036, 1041.084 482.894 C 1042.780 480.752, 1043.947 479, 1043.677 479 C 1043.407 479, 1041.435 481.137, 1039.294 483.750 M 1105.473 482.754 C 1100.845 485.910, 1097.397 488.744, 1095.135 491.250 C 1094.266 492.212, 1093.209 493, 1092.786 493 C 1092.363 493, 1090.733 494.344, 1089.163 495.987 C 1087.592 497.630, 1085.976 498.643, 1085.571 498.237 C 1085.165 497.832, 1084.983 498.016, 1085.167 498.646 C 1085.350 499.276, 1083.700 501.558, 1081.500 503.717 C 1079.300 505.875, 1076.375 509.028, 1075 510.723 C 1073.625 512.417, 1071.375 515.192, 1070 516.889 C 1068.625 518.585, 1066.502 521.154, 1065.282 522.598 C 1064.062 524.042, 1062.794 526.073, 1062.465 527.111 C 1062.135 528.150, 1061.446 529, 1060.933 529 C 1060.420 529, 1060 529.675, 1060 530.500 C 1060 531.325, 1059.556 532, 1059.013 532 C 1058.471 532, 1057.369 533.575, 1056.564 535.500 C 1055.760 537.425, 1054.554 539, 1053.884 539 C 1053.215 539, 1052.932 539.266, 1053.257 539.590 C 1053.582 539.915, 1052.754 542.237, 1051.418 544.751 C 1050.081 547.264, 1049.164 549.497, 1049.379 549.712 C 1049.594 549.927, 1051.461 547.043, 1053.528 543.302 C 1065.190 522.197, 1081.528 503.288, 1103 486.044 C 1110.047 480.384, 1110.491 479.999, 1109.950 480.004 C 1109.703 480.007, 1107.688 481.244, 1105.473 482.754 M 1331.918 501.750 C 1344.668 514.630, 1353.465 525.838, 1361.314 539.204 C 1364.125 543.991, 1366.591 547.743, 1366.793 547.541 C 1366.995 547.339, 1366.397 546.009, 1365.465 544.587 C 1364.533 543.164, 1364.085 542, 1364.470 542 C 1364.855 542, 1363.575 539.827, 1361.625 537.171 C 1359.676 534.515, 1357.623 531.140, 1357.065 529.671 C 1356.506 528.202, 1355.671 527, 1355.209 527 C 1354.747 527, 1353.357 525.200, 1352.120 523 C 1350.884 520.800, 1349.523 519, 1349.096 519 C 1348.669 519, 1347.174 517.390, 1345.774 515.423 C 1342.136 510.309, 1322.054 490, 1320.636 490 C 1320.444 490, 1325.521 495.288, 1331.918 501.750 M 1387 497 C 1387.589 498.100, 1387.864 499, 1387.612 499 C 1387.360 499, 1388.469 500.315, 1390.077 501.923 C 1391.685 503.531, 1393 505.556, 1393 506.423 C 1393 507.290, 1393.425 508, 1393.944 508 C 1394.463 508, 1397.413 512.500, 1400.500 518 C 1403.587 523.500, 1406.354 528, 1406.648 528 C 1407.530 528, 1400.231 515.172, 1393.418 504.750 C 1389.913 499.387, 1386.794 495, 1386.487 495 C 1386.181 495, 1386.411 495.900, 1387 497 M 1025.672 501.920 C 1018.680 512.485, 1016.011 517, 1016.758 517 C 1017.209 517, 1019.105 514.413, 1020.973 511.250 C 1022.840 508.087, 1025.273 504.478, 1026.378 503.228 C 1028.085 501.301, 1029.452 498, 1028.544 498 C 1028.391 498, 1027.098 499.764, 1025.672 501.920 M 530.682 527.652 C 530.307 528.027, 530 528.708, 530 529.167 C 530 529.625, 550.587 529.892, 575.750 529.761 L 621.500 529.521 577.053 529.250 C 548.664 529.077, 532.381 528.616, 531.984 527.974 C 531.643 527.422, 531.057 527.277, 530.682 527.652 M 1008.628 531.278 C 1001.240 547.941, 997.902 556.235, 998.388 556.721 C 998.699 557.032, 999.233 556.434, 999.576 555.393 C 1001.126 550.686, 1005.719 540.024, 1008.290 535.163 C 1009.843 532.228, 1010.975 529.203, 1010.807 528.441 C 1010.638 527.679, 1009.658 528.956, 1008.628 531.278 M 620.491 756.500 C 620.491 880.250, 620.608 930.726, 620.750 868.670 C 620.892 806.613, 620.892 705.363, 620.750 643.670 C 620.608 581.976, 620.491 632.750, 620.491 756.500 M 1262.960 557.634 C 1265.414 559.760, 1269.024 563.188, 1270.982 565.250 C 1272.941 567.313, 1275.093 569, 1275.763 569 C 1277.196 569, 1267.075 559.529, 1262 556.119 C 1259.231 554.259, 1259.432 554.575, 1262.960 557.634 M 1141.390 568.230 C 1137.593 572.228, 1133.450 577.075, 1132.181 579 C 1130.069 582.206, 1130.154 582.165, 1133.188 578.509 C 1135.010 576.314, 1139.333 571.647, 1142.795 568.138 C 1146.258 564.628, 1148.911 561.578, 1148.692 561.358 C 1148.472 561.139, 1145.187 564.231, 1141.390 568.230 M 1280 573.540 C 1280 574.244, 1283.983 579.851, 1286.337 582.462 C 1288.650 585.028, 1292.275 591.865, 1292.720 594.500 C 1292.906 595.600, 1293.498 596.651, 1294.035 596.835 C 1294.573 597.020, 1294.758 597.582, 1294.447 598.085 C 1294.136 598.588, 1294.322 599, 1294.861 599 C 1295.399 599, 1296.596 601.279, 1297.522 604.065 C 1298.447 606.850, 1299.388 608.946, 1299.613 608.721 C 1301.003 607.331, 1291.773 588.252, 1285.355 579.250 C 1281.231 573.466, 1280 572.153, 1280 573.540 M 1125.612 589.250 C 1123.694 592.688, 1121.644 596.850, 1121.057 598.500 C 1120.065 601.285, 1120.097 601.360, 1121.503 599.547 C 1122.336 598.473, 1123.554 596.110, 1124.210 594.297 C 1124.865 592.484, 1125.713 591, 1126.092 591 C 1126.472 591, 1127.058 589.906, 1127.393 588.570 C 1127.729 587.233, 1128.709 585.433, 1129.573 584.570 C 1130.436 583.706, 1130.683 583, 1130.120 583 C 1129.558 583, 1127.529 585.813, 1125.612 589.250 M 1116.809 610.500 C 1113.547 621.530, 1112.599 625.734, 1113.599 624.734 C 1114.019 624.315, 1115.177 620.716, 1116.175 616.736 C 1117.172 612.756, 1118.485 608.547, 1119.093 607.381 C 1119.700 606.216, 1120.034 604.416, 1119.834 603.381 C 1119.634 602.347, 1118.273 605.550, 1116.809 610.500 M 1304.201 635.643 C 1304.058 641.443, 1304.360 643.889, 1305.250 644.143 C 1305.938 644.339, 1324.950 644.265, 1347.500 643.978 L 1388.500 643.456 1346.792 643.228 L 1305.084 643 1304.743 635.250 L 1304.402 627.500 1304.201 635.643 M 983.392 642 C 983.392 649.425, 983.549 652.462, 983.742 648.750 C 983.934 645.038, 983.934 638.962, 983.742 635.250 C 983.549 631.538, 983.392 634.575, 983.392 642 M 1434.205 643.539 C 1434.872 644.205, 1523.184 644.150, 1523.851 643.482 C 1524.116 643.217, 1503.933 643, 1479 643 C 1454.067 643, 1433.909 643.242, 1434.205 643.539 M 1132.007 704.609 C 1131.992 707.063, 1146.436 721.781, 1154.290 727.315 L 1158.500 730.282 1154.694 726.641 C 1152.601 724.638, 1150.692 723, 1150.452 723 C 1149.590 723, 1135.484 708.763, 1133.767 706.160 C 1132.803 704.697, 1132.010 703.999, 1132.007 704.609 M 1385.831 744.750 C 1489.964 744.890, 1660.064 744.890, 1763.831 744.750 C 1867.599 744.610, 1782.400 744.495, 1574.500 744.495 C 1366.600 744.495, 1281.699 744.610, 1385.831 744.750 M 1064.578 759.500 C 1067.435 764.451, 1073.887 771.978, 1083.455 781.523 C 1091.733 789.781, 1091.855 789.866, 1084.887 782.523 C 1077.645 774.890, 1068.633 764.400, 1064.674 758.994 C 1062.869 756.529, 1062.868 756.535, 1064.578 759.500 M 1017.234 769 C 1020.430 774.505, 1027.202 785, 1027.558 785 C 1028.350 785, 1026.611 781.373, 1024.352 778.317 C 1023.058 776.566, 1022 774.859, 1022 774.525 C 1022 773.912, 1021.751 773.577, 1017.891 769 L 1015.783 766.500 1017.234 769 M 1042 803.765 C 1042 804.615, 1064.749 827.128, 1069.546 831.025 C 1071.221 832.386, 1069.421 830.420, 1065.546 826.656 C 1061.671 822.891, 1058.650 819.291, 1058.833 818.656 C 1059.017 818.020, 1058.874 817.793, 1058.516 818.150 C 1057.712 818.954, 1043.404 805.144, 1043.750 803.899 C 1043.888 803.405, 1043.550 803, 1043 803 C 1042.450 803, 1042 803.344, 1042 803.765 M 1114 806.432 C 1114 807.978, 1118.521 810.987, 1128.026 815.768 C 1133.787 818.666, 1138.950 821.013, 1139.500 820.985 C 1140.050 820.956, 1135.990 818.586, 1130.477 815.716 C 1124.964 812.847, 1119.002 809.457, 1117.227 808.182 C 1115.452 806.907, 1114 806.119, 1114 806.432 M 1199.654 835.250 C 1199.909 835.663, 1369.179 835.890, 1575.809 835.755 C 1782.439 835.620, 1903.350 835.395, 1844.500 835.255 C 1561.137 834.582, 1199.240 834.579, 1199.654 835.250 M 972.373 865.250 C 973.293 866.763, 973.722 868, 973.326 868 C 972.930 868, 974.495 869.389, 976.803 871.087 C 979.111 872.784, 981 874.571, 981 875.057 C 981 876.703, 1005.735 900.688, 1013.320 906.397 C 1017.465 909.517, 1021.078 912.616, 1021.349 913.284 C 1021.665 914.062, 1021.871 914.098, 1021.921 913.385 C 1021.964 912.771, 1018.515 909.396, 1014.255 905.885 C 1005.703 898.835, 985.523 879.121, 976.497 869 C 973.309 865.425, 971.454 863.737, 972.373 865.250 M 1381.831 881.750 C 1486.514 881.890, 1657.514 881.890, 1761.831 881.750 C 1866.149 881.610, 1780.500 881.495, 1571.500 881.495 C 1362.500 881.495, 1277.149 881.610, 1381.831 881.750 M 1025.500 915.513 C 1031.382 920.791, 1033.593 922.498, 1040.807 927.328 C 1044.825 930.019, 1048.318 932.015, 1048.569 931.765 C 1048.819 931.514, 1045.756 929.145, 1041.762 926.500 C 1037.768 923.854, 1031.800 919.694, 1028.500 917.255 C 1025.200 914.816, 1023.850 914.032, 1025.500 915.513" stroke="none" fill="#fbca32" fill-rule="evenodd"/><path d="M 621 351 L 621 400 679.500 400 L 738 400 738 690 L 738 980 779.500 980 L 821 980 821 641 L 821 302 721 302 L 621 302 621 351 M 1179 308.072 C 1129.486 313.522, 1083.681 330.083, 1042.768 357.328 C 1005.064 382.436, 977.178 410.491, 951.150 449.500 C 919.353 497.157, 899.854 553.428, 894.940 611.719 C 893.405 629.929, 894.251 672.285, 896.462 687.944 C 905.869 754.562, 930.084 811.205, 970.872 862 C 981.215 874.881, 1005.086 898.628, 1018.500 909.380 C 1065.328 946.916, 1115.645 968.054, 1177.500 976.174 C 1184.246 977.060, 1282.357 977.442, 1569.250 977.701 L 1952 978.047 1952 930.035 L 1952 882.023 1568.250 881.749 C 1205.202 881.490, 1183.988 881.379, 1175.014 879.695 C 1127.691 870.816, 1090.123 851.660, 1057.103 819.574 C 1017.618 781.206, 993.748 733.275, 985.353 675.500 C 982.744 657.542, 982.977 624.011, 985.839 605.500 C 991.587 568.335, 1004.245 534.659, 1023.428 505.500 C 1060.223 449.570, 1113.151 414.825, 1177.500 404.359 C 1190.927 402.175, 1223.026 401.881, 1236.500 403.818 C 1283.429 410.565, 1325.107 430.885, 1358.790 463.439 C 1373.922 478.064, 1381.692 487.287, 1392.436 503.376 C 1414.695 536.706, 1428.142 574.146, 1432.529 615 C 1433.326 622.425, 1433.983 631.763, 1433.989 635.750 L 1434 643 1479 643 L 1524 643 1523.985 639.250 C 1523.951 631.040, 1521.898 604.855, 1520.438 594 C 1507.900 500.811, 1457.523 416, 1383.366 363.236 C 1344.186 335.360, 1300.805 317.689, 1252.500 309.931 C 1237.597 307.537, 1193.897 306.432, 1179 308.072 M 532 482.500 L 532 529 576.500 529 L 621 529 621 754.500 L 621 980 661.500 980 L 702 980 702 708 L 702 436 617 436 L 532 436 532 482.500 M 1197 450.126 C 1139.073 453.607, 1085.264 488.317, 1054.112 542.300 C 1036.900 572.125, 1028.074 605.759, 1028.023 641.716 C 1027.926 710.093, 1060.117 770.909, 1115.566 807.107 C 1134.474 819.450, 1156.586 828.084, 1181 832.658 C 1189.984 834.341, 1211.164 834.454, 1571.250 834.734 L 1952 835.031 1952 790.023 L 1952 745.015 1572.250 744.741 L 1192.500 744.466 1185.265 742.336 C 1150.665 732.154, 1124.965 705.309, 1115.251 669.206 C 1112.904 660.483, 1112.640 657.728, 1112.643 642 C 1112.647 622.907, 1113.540 617.907, 1119.883 601.460 C 1126.809 583.500, 1141.998 564.766, 1158.135 554.279 C 1190.116 533.497, 1231.493 534.404, 1262.673 556.573 C 1269.404 561.358, 1280.530 572.521, 1285.525 579.500 C 1297.075 595.640, 1304.971 618.858, 1304.992 636.750 L 1305 643 1347.435 643 L 1389.870 643 1389.363 633.750 C 1385.724 567.295, 1354.128 511.157, 1301 476.748 C 1270.425 456.946, 1234.888 447.849, 1197 450.126" stroke="none" fill="#fa0404" fill-rule="evenodd"/></svg>